<svg width="5205" height="5599" viewBox="0 0 5205 5599" fill="none" xmlns="http://www.w3.org/2000/svg">
<path d="M3316.28 5457.58C3173.18 5148.27 3284.41 4907.26 3375.9 4716.48C3453.65 4546.67 3517.04 4413.41 3435.36 4228.41C3348.9 4041.54 3202.03 3994.38 3015.17 3936.77C2804.42 3869.79 2545.91 3784.04 2398.04 3472.86C2254.93 3163.55 2366.17 2922.54 2457.66 2731.76C2535.41 2561.95 2598.8 2428.68 2517.12 2243.68C2430.66 2056.81 2283.79 2009.66 2096.92 1952.05C1886.18 1885.07 1627.67 1799.32 1479.8 1488.13C1336.69 1178.82 1447.93 937.811 1539.42 747.04C1617.17 577.23 1680.55 443.961 1598.87 258.964C1563.1 181.637 1598.99 90.2873 1677.83 57.9954C1756.68 25.7034 1852.2 63.233 1887.97 140.56C2031.07 449.867 1919.84 690.88 1828.35 881.651C1750.6 1051.46 1687.21 1184.73 1768.89 1369.73C1855.35 1556.6 2002.22 1603.76 2189.08 1661.36C2399.83 1728.35 2658.33 1814.1 2806.21 2125.28C2949.31 2434.59 2838.08 2675.61 2746.59 2866.38C2668.84 3036.19 2605.45 3169.46 2687.14 3354.45C2773.59 3541.33 2920.46 3588.48 3107.32 3646.09C3318.07 3713.07 3576.58 3798.82 3724.45 4110C3872.33 4421.19 3756.32 4660.32 3664.83 4851.1C3587.08 5020.91 3523.69 5154.18 3605.38 5339.18C3641.15 5416.5 3605.26 5507.85 3526.42 5540.14C3442.8 5570.56 3352.05 5534.9 3316.28 5457.58Z" fill="#44AE9F" fill-opacity="0.05"/>
</svg>
