<svg id="Layer_1" data-name="Layer 1" xmlns="http://www.w3.org/2000/svg" viewBox="0 0 3000.87 347.16"><defs><style>.cls-1{fill:#e56539;opacity:0.08;}</style></defs><title>curvas landing</title><path class="cls-1" d="M1958,753c-146,.8-263,95.27-403,97.4-214.37,3.26-347.64-73.42-467.63-93.21-258.6-42.65-365.78,44.06-512.26,51.56S364.64,752.6,167.69,752.6c-61,0-117.87,18.49-167.69,33.1v243.48c83.48,15.56,159.7,63.4,323,63.4,205.28,0,269.66-66.32,382.3-66.32,109.37,0,232.44,49.5,355.7,54.32,84,3.29,236.93-47.64,344-47.64,90,0,256.2,42.68,409,49.22,300,12.84,485-30.49,576-37.3,190-14.24,322.9,53.83,506.5,38.22,126-10.71,189.5-320.07-116.5-331C2603,745.77,2554,795,2426,797,2228,800.09,2120,752.09,1958,753Z" transform="translate(0 -745.42)"/></svg>