<svg xmlns="http://www.w3.org/2000/svg" viewBox="0 0 73.88 78.23"><defs><style>.cls-1{opacity:0.3;}.cls-2{fill:#05adb7;}.cls-3{fill:#fff;}.cls-4{fill:#24356b;}</style></defs><title>clients-icon</title><g id="Capa_2" data-name="Capa 2"><g id="Layer_1" data-name="Layer 1"><g class="cls-1"><path class="cls-2" d="M3.64,21A3.51,3.51,0,1,1,0,24.33,3.5,3.5,0,0,1,3.64,21Z"/><path class="cls-2" d="M55,12.55a2.06,2.06,0,1,1-2.13,2A2.05,2.05,0,0,1,55,12.55Z"/><circle class="cls-2" cx="62.58" cy="63.65" r="5.33" transform="translate(-9.87 115.79) rotate(-81.23)"/><path class="cls-2" d="M24.1,78.23A19.78,19.78,0,0,1,4.71,61.85C3.12,53.66,7.24,45.94,10,38.49c1.35-3.65,2.3-7.6,1.59-11.43C10.66,22.18,7.64,18.14,8.11,13S11.5,3,16.25,1c7.51-3.24,14.06,2.42,19.5,6.85A62.21,62.21,0,0,0,55.46,18.54C61.79,20.66,68,23.4,71.67,29.4a16.64,16.64,0,0,1,.07,16.45c-3.61,6.52-9.83,6.63-16.22,8.84C42.75,59.1,39.27,78.41,24.1,78.23Z"/></g><path class="cls-3" d="M59.42,38.93A24.75,24.75,0,0,1,28.06,62.75c-2.1-.58-9.1,5.39-10.94,4.3-1.3-.77,2.49-8.48,1.36-9.46A24.72,24.72,0,1,1,59.42,38.93Z"/><path class="cls-4" d="M52.68,23.6a1.18,1.18,0,0,1-.86-.38c-.31-.33-.62-.66-1-1a1.18,1.18,0,0,1,0-1.66,1.16,1.16,0,0,1,1.65,0q.54.53,1,1.08a1.18,1.18,0,0,1-.07,1.66A1.21,1.21,0,0,1,52.68,23.6Z"/><path class="cls-4" d="M15.59,69a1.17,1.17,0,0,1-1-1.84s2.86-4.15,3.31-7.24a6.64,6.64,0,0,0,0-1.3A25.69,25.69,0,0,1,46.85,16.4a1.17,1.17,0,0,1-1.12,2.06A23.35,23.35,0,0,0,19.84,57.08a1.14,1.14,0,0,1,.43.8,9.41,9.41,0,0,1,0,2.33,18.85,18.85,0,0,1-2.37,6.07,16.63,16.63,0,0,0,5.49-2.19c.44-.25.9-.51,1.38-.76a16,16,0,0,0,2.41-1.67,1.16,1.16,0,0,1,1.06-.22,23.35,23.35,0,0,0,27-33.37,1.16,1.16,0,0,1,.48-1.58,1.18,1.18,0,0,1,1.59.49A25.7,25.7,0,0,1,34.6,64.69a25.4,25.4,0,0,1-6.43-.84,15.53,15.53,0,0,1-2.32,1.55l-1.32.73A18.62,18.62,0,0,1,15.69,69Z"/><path class="cls-4" d="M34.63,54A14.78,14.78,0,1,1,49.41,39.24,14.79,14.79,0,0,1,34.63,54Zm0-27.29A12.52,12.52,0,1,0,47.15,39.24,12.52,12.52,0,0,0,34.63,26.73Z"/><path class="cls-4" d="M31.41,35.18a1.49,1.49,0,0,0-1.07-.45,1.52,1.52,0,0,0,0,3,1.49,1.49,0,0,0,1.07-.45,1.51,1.51,0,0,0,0-2.13Z"/><path class="cls-4" d="M39.52,35.18a1.5,1.5,0,0,0-2.14,0,1.51,1.51,0,0,0,0,2.13,1.5,1.5,0,0,0,2.14,0,1.51,1.51,0,0,0,0-2.13Z"/><path class="cls-4" d="M39.13,41.22a1.26,1.26,0,0,0-1.54.89,3.06,3.06,0,0,1-5.92,0,1.25,1.25,0,1,0-2.42.65,5.58,5.58,0,0,0,10.77,0A1.27,1.27,0,0,0,39.13,41.22Z"/></g></g></svg>