<svg xmlns="http://www.w3.org/2000/svg" viewBox="0 0 324.04 269.57"><defs><style>.cls-1{opacity:0.15;}.cls-2{fill:#44ae9f;}</style></defs><title>comillas</title><g id="Capa_2" data-name="Capa 2"><g id="Icon_004" data-name="Icon 004"><g class="cls-1"><path class="cls-2" d="M152,19.73a10.34,10.34,0,0,1-6.83,9.71A136.12,136.12,0,0,0,120.2,42,194.55,194.55,0,0,0,87.42,67.65,136.78,136.78,0,0,0,62.71,99.49q-9.09,16.35-7.75,32.7a9.42,9.42,0,0,0,1.51,4.47c1.78,2.62,4.82,4.17,9.09,4.64a147.39,147.39,0,0,0,16.16.95,60.14,60.14,0,0,1,41.33,15.67q17.58,15.69,17.58,44.19,0,27.57-19.48,47.51T77,269.57q-38,0-57.49-27.55T0,174.55a147.56,147.56,0,0,1,12.83-60.33A204.83,204.83,0,0,1,46.56,61.48,215.27,215.27,0,0,1,95,20.62,189.57,189.57,0,0,1,138.57.48,10.34,10.34,0,0,1,152,10.31Zm172,0a10.35,10.35,0,0,1-6.84,9.72,137,137,0,0,0-25,12.56,195,195,0,0,0-32.78,25.65,136.78,136.78,0,0,0-24.71,31.84q-9.08,16.35-7.74,32.69a9.29,9.29,0,0,0,1.51,4.49q2.67,3.92,9.09,4.63a147.22,147.22,0,0,0,16.15.95,60.12,60.12,0,0,1,41.33,15.67q17.58,15.69,17.58,44.19,0,27.57-19.48,47.51T249,269.57q-38,0-57.49-27.55T172,174.55a147.56,147.56,0,0,1,12.83-60.33,204.83,204.83,0,0,1,33.73-52.74A215.27,215.27,0,0,1,267,20.62,189.46,189.46,0,0,1,310.57.49,10.34,10.34,0,0,1,324,10.33Z"/></g></g></g></svg>