<svg xmlns="http://www.w3.org/2000/svg" viewBox="0 0 85.09 63.43"><defs><style>.cls-1{opacity:0.3;}.cls-2{fill:#05adb7;}.cls-3{fill:#fff;}.cls-4{fill:#24356b;}</style></defs><title>countrys-icon_1</title><g id="Capa_2" data-name="Capa 2"><g id="Layer_1" data-name="Layer 1"><g class="cls-1"><path class="cls-2" d="M81.6,19.41a4.07,4.07,0,1,1-5.28-2.3A4.07,4.07,0,0,1,81.6,19.41Z"/><circle class="cls-2" cx="6.18" cy="17.73" r="6.17" transform="translate(-4.31 2.16) rotate(-14.76)"/><path class="cls-2" d="M2.31,57.35c5.5,11.35,34.5-.5,67.34,5.89C81.18,65.49,86.88,46.89,84.6,41.47,79.81,30,65.3,30.64,64.55,22.24S72.81,2.63,47.31.24,25.49,13.9,27.25,22.11-9.67,32.62,2.31,57.35Z"/></g><circle class="cls-3" cx="42.85" cy="35.72" r="26.8"/><path class="cls-4" d="M66.45,21.15A28,28,0,1,0,52.19,61.39a1.1,1.1,0,0,0-.79-2,25.69,25.69,0,0,1-24.74-3.4l1-5.12.47-.16a3.42,3.42,0,0,0,2.19-4.3L30,45.29a1.2,1.2,0,0,1,0-.75,3.41,3.41,0,0,0-2.58-4.41l-2.48-.49L20.13,36a1.14,1.14,0,0,0-1-.17l-2.79.91a27.12,27.12,0,0,1,0-3,2.65,2.65,0,0,1,.23.22.91.91,0,0,0,.2.24,1.11,1.11,0,0,0,.87.3,14.44,14.44,0,0,0,2-.22L21.44,34a1.11,1.11,0,0,0,.83-.65,1.09,1.09,0,0,0-.11-1l-1.34-2L22.75,29a1.17,1.17,0,0,0,.31-.35l3-5.21,1.21-1.29a4.62,4.62,0,0,0,.89-4.91,5,5,0,0,0-2-2.35,25.3,25.3,0,0,1,3.06-2.08A25.8,25.8,0,0,1,41.84,9.31l-2,2.46-7.26,2.55a1.06,1.06,0,0,0-.65.61l-2,4.92a1.09,1.09,0,0,0,.12,1l3,4.15A10.61,10.61,0,0,0,31.7,26.7c-.22.31-.42.6-.56.76l-.37.42A10.32,10.32,0,0,0,29,30.32a6.55,6.55,0,0,0,.54,6.61,6.15,6.15,0,0,0,5.81,2.49,8.45,8.45,0,0,0,1.07-.21c.94-.23,1.24-.26,1.54,0s.16.17.16.63a4.49,4.49,0,0,0,.1,1.09,3.33,3.33,0,0,0,.93,1.51,2.66,2.66,0,0,1,.39.51,2.73,2.73,0,0,1-.13,2.27,2,2,0,0,0-.08.26c-.5,1.53.19,3.06.8,4.4.2.44.39.85.51,1.21,1,2.93,1.72,3.6,2.31,3.87a2.33,2.33,0,0,0,1,.2c1.58,0,3.23-1.47,4-2.4a3.36,3.36,0,0,0,.68-1.6,1.38,1.38,0,0,1,.14-.48,3,3,0,0,1,.36-.47,3.86,3.86,0,0,0,.9-1.49,2.43,2.43,0,0,1,.74-1.16,2.84,2.84,0,0,1,.24-.26c1.46-1.59,1.09-2.81.69-4.09-.34-1.08.25-1.78,1.67-3.1a11.9,11.9,0,0,0,1.74-1.87,2.37,2.37,0,0,0,.46-2.2c-.4-.92-1.4-1.07-2.21-1.2a3.69,3.69,0,0,1-1-.22,5.25,5.25,0,0,1-1.5-2.26c-.08-.18-.15-.36-.23-.53s-.29-.67-.44-1.06a9.28,9.28,0,0,0-1.62-3,7,7,0,0,0-3.15-1.4c-.38-.1-.75-.2-1-.29a1,1,0,0,0-.63,0,3,3,0,0,0-1.17.48,1.43,1.43,0,0,0-.39.53A11.66,11.66,0,0,1,41,26.26h0a1.58,1.58,0,0,0-.1-1.06c-.61-1.29-2.65-1.19-3-1.16l-.82,0c-.48,0-1,0-1.53.1l0-.08a2.79,2.79,0,0,1,2.63-1.85h.62a1.1,1.1,0,1,0,0-2.19h-.62a5,5,0,0,0-4.25,2.36l-1.63-2.29,1.61-3.9,7.09-2.48a1.06,1.06,0,0,0,.5-.36l3.15-4A25.82,25.82,0,0,1,67.14,28.52l-.47.41a2.9,2.9,0,0,0-1,2.13,0,0,0,0,1,0,0L64.94,29a2.8,2.8,0,0,0-.5-.85l-1.35-1.58a2.74,2.74,0,0,0-2.09-1H59.35a1.56,1.56,0,0,0-1.4.83A1.59,1.59,0,0,0,58,28.08l.17.25a11.85,11.85,0,0,1-3.62,2.15l-2.26-4.34v-1a1.14,1.14,0,0,0-.34-.79l-2-1.95a1.1,1.1,0,0,0-.4-.24l-1.83-.64A1.09,1.09,0,1,0,47,23.61l1.61.57,1.53,1.46v.77a1.14,1.14,0,0,0,.13.51l2.83,5.43a1.1,1.1,0,0,0,1.36.52l.82-.3a14.5,14.5,0,0,0,5.15-3.29,1.1,1.1,0,0,0,.14-1.38l-.06-.09H61a.57.57,0,0,1,.43.19l1.35,1.58a.77.77,0,0,1,.1.18l1.49,4.09a1.08,1.08,0,0,0,.79.7,1,1,0,0,0,.24,0,1.12,1.12,0,0,0,.77-.32l.71-.71a3.45,3.45,0,0,0,.91-1.65,26,26,0,0,1-9.64,23.61,1.09,1.09,0,1,0,1.35,1.72,28.06,28.06,0,0,0,7-36.08Zm-47.2,17,4.53,3.44a1.09,1.09,0,0,0,.45.21l2.72.53a1.22,1.22,0,0,1,.93,1.57,3.34,3.34,0,0,0,0,2.12L28.22,47a1.21,1.21,0,0,1-.78,1.53l-1.09.36a1.1,1.1,0,0,0-.74.84l-.87,4.57A26,26,0,0,1,16.56,39Zm6.4-17.48L24.35,22a1.43,1.43,0,0,0-.14.2l-2.93,5.12-2.61,1.86a1.09,1.09,0,0,0-.26,1.51l1,1.42c-.56.09-1.07.16-1.4.2l-.2-.2-1.16-1a25.83,25.83,0,0,1,7.72-14.67A2.87,2.87,0,0,1,26.12,18,2.45,2.45,0,0,1,25.65,20.62Zm8.93,6A7,7,0,0,1,37,26.26l.93,0a2.36,2.36,0,0,1,.46,0,1.1,1.1,0,0,0-.06.57,1.06,1.06,0,0,0,.57.79c.2.11.49.3.79.51a6.36,6.36,0,0,0,2.74,1.27A1.81,1.81,0,0,0,44,28.74l0,0a1.48,1.48,0,0,0,.29-.36l.55.15a7.29,7.29,0,0,1,2.13.78,7.79,7.79,0,0,1,1.16,2.31c.17.42.32.83.5,1.2l.22.49a6.9,6.9,0,0,0,2.3,3.21A4.51,4.51,0,0,0,53,37l.23,0a11,11,0,0,1-1.39,1.46c-1.36,1.26-3,2.84-2.27,5.35.37,1.18.39,1.31-.2,1.95l-.23.24a4.58,4.58,0,0,0-1.23,2,1.9,1.9,0,0,1-.45.7,4.24,4.24,0,0,0-.61.81,3.41,3.41,0,0,0-.4,1.16,1.39,1.39,0,0,1-.23.65,6.56,6.56,0,0,1-1.38,1.22,1.9,1.9,0,0,1-.92.37,7.76,7.76,0,0,1-1.19-2.58A14.13,14.13,0,0,0,42.14,49c-.47-1-1-2.09-.72-2.82a1.83,1.83,0,0,0,.08-.25,4.78,4.78,0,0,0,.08-3.79,4,4,0,0,0-.8-1.14,2.06,2.06,0,0,1-.42-.56,2.33,2.33,0,0,1,0-.55,2.72,2.72,0,0,0-.85-2.25,3.54,3.54,0,0,0-3.56-.55,7.37,7.37,0,0,1-.81.17,3.94,3.94,0,0,1-3.77-1.6A4.36,4.36,0,0,1,31,31.26a8.85,8.85,0,0,1,1.42-1.93l.39-.43c.21-.25.44-.58.7-.93A7.83,7.83,0,0,1,34.58,26.61Z"/></g></g></svg>