<svg xmlns="http://www.w3.org/2000/svg" viewBox="0 0 77.47 83.85"><defs><style>.cls-1{opacity:0.1;}.cls-2{fill:#05adb7;}.cls-3{opacity:0.2;}.cls-4{fill:#fff;}.cls-5{fill:#24356b;}</style></defs><title>evaluations-icon</title><g id="Capa_2" data-name="Capa 2"><g id="Layer_1" data-name="Layer 1"><g class="cls-1"><path class="cls-2" d="M25.14,8.57a3.66,3.66,0,0,1,.7,5.09,3.56,3.56,0,0,1-5.06.43A3.67,3.67,0,0,1,20.08,9,3.56,3.56,0,0,1,25.14,8.57Z"/></g><g class="cls-1"><path class="cls-2" d="M73.35,34.4a2.13,2.13,0,0,1,.41,3,2.08,2.08,0,0,1-3,.25,2.14,2.14,0,0,1-.41-3A2.07,2.07,0,0,1,73.35,34.4Z"/></g><g class="cls-1"><ellipse class="cls-2" cx="30.68" cy="78.37" rx="5.33" ry="5.62" transform="translate(-46.43 44.65) rotate(-45)"/></g><g class="cls-3"><path class="cls-2" d="M8.55,67.88A21,21,0,0,1,1.9,42.33c3.5-7.64,11.52-11.27,18.23-15.54,3.29-2.1,6.42-4.69,8.08-8.24C30.32,14,30.17,8.84,33.6,5a14.19,14.19,0,0,1,14-4.57C55.79,2.56,58,11.29,59.93,18.33A67.85,67.85,0,0,0,70.18,39.52c4.09,5.74,7.72,11.92,7.24,19.08A16,16,0,0,1,67.77,72c-6.89,3-12.19-.89-18.87-3.16C35.55,64.25,21.21,77.66,8.55,67.88Z"/></g><path class="cls-4" d="M20.51,48V64.79h8V48s3.09,1.08,3.54,0a13.46,13.46,0,0,0,.55-3.44l1.91,1.27.67,19.09,9.33.33V46l2.92-1.44S47,47.3,48.51,47.8a17,17,0,0,0,2,.59l.36,16.5,9.23-.17L60,48.14s2.24.91,3.62-.25.72-3.63.72-3.63l.16-7.14a15.08,15.08,0,0,0-2-3.62c-.91-.91-4.33-1.85-4.33-1.85A13.72,13.72,0,0,0,58.79,28c0-1.76-1.28-4.21-2.86-4.21s-3.33,2.26-3.08,4a10,10,0,0,0,2,3.83l-5.3,1.91V31s-.75-4-2.75-4-3.29-.08-3.29-.08A9.85,9.85,0,0,0,45,22.39,4.58,4.58,0,0,0,41,17.64c-2,0-4.48,1.91-4.48,3.91s2.09,5.09,2.09,5.09-4.2.35-5,1.17-2.09,1.8-2.09,3V34a7.47,7.47,0,0,0-2.25-1.26A13.86,13.86,0,0,0,26.47,32S28.12,29.3,28,27.3s-1.93-4.07-3.61-3.78-3.16,2.72-3.25,4.29S24,31.39,24,31.39s-3.7.83-5,2a7.16,7.16,0,0,0-2.5,4.74,63.91,63.91,0,0,0,.75,8.59C17.51,47.64,19.51,48.39,20.51,48Z"/><path class="cls-5" d="M61.53,47.32h-.81V39.16a1,1,0,1,0-1.92,0v4.36H52.28V42.21a1,1,0,0,0-1.92,0v5.11h-.82a1.11,1.11,0,0,1-1.1-1.11V45a5.21,5.21,0,0,0,1.49-3.65V34.54a5.65,5.65,0,0,1,4.16-1.83H57a5.65,5.65,0,0,1,5.65,5.65v7.85a1.11,1.11,0,0,1-1.1,1.11M58.8,64H56.51V50.33s0-.09,0-.14v-1a1,1,0,1,0-1.92,0V64h-2.3V45.44H58.8ZM53,27.37a2.55,2.55,0,0,1,5.09,0v.88a2.55,2.55,0,0,1-5.09,0Zm-5,14a3.34,3.34,0,0,1-2.44,3.2V31.35a1,1,0,0,0-1.92,0V41.66H36.36V31.35a1,1,0,0,0-1.92,0V44.53A3.33,3.33,0,0,1,32,41.33v-10A3.33,3.33,0,0,1,35.34,28H39v2.62a1,1,0,1,0,1.92,0V28h3.74A3.34,3.34,0,0,1,48,31.35ZM40,18.68A3.32,3.32,0,0,1,43.33,22v.78a3.32,3.32,0,0,1-6.64,0V22A3.32,3.32,0,0,1,40,18.68M31.55,46.21a1.11,1.11,0,0,1-1.1,1.11h-.82V42.21a1,1,0,1,0-1.92,0v1.31H21.19V39.16a1,1,0,0,0-1.92,0v8.16h-.81a1.11,1.11,0,0,1-1.1-1.11V38.36A5.65,5.65,0,0,1,23,32.71H25.9a5.67,5.67,0,0,1,4.19,1.86h0v6.75A5.28,5.28,0,0,0,31.55,45ZM27.71,64h-2.3V49.18a1,1,0,1,0-1.92,0v1c0,.05,0,.1,0,.14V64H21.19V45.44h6.52Zm-5.8-36.59a2.55,2.55,0,0,1,5.09,0v.88a2.55,2.55,0,0,1-5.09,0ZM59,31.06a4.39,4.39,0,0,0,1-2.81v-.88a4.46,4.46,0,1,0-8.92,0v.88a4.38,4.38,0,0,0,1,2.81,8,8,0,0,0-2.15,1v-.69a5.26,5.26,0,0,0-5.25-5.25h-.62a5.24,5.24,0,0,0,1.19-3.32V22a5.24,5.24,0,0,0-10.48,0v.78A5.24,5.24,0,0,0,36,26.1h-.62a5.25,5.25,0,0,0-5.25,5.25v.71a7.69,7.69,0,0,0-2.18-1,4.38,4.38,0,0,0,1-2.81v-.88a4.46,4.46,0,1,0-8.91,0v.88a4.38,4.38,0,0,0,1,2.81,7.59,7.59,0,0,0-5.56,7.3v7.85a3,3,0,0,0,3,3h.81V64.92a1,1,0,0,0,1,1h8.44a1,1,0,0,0,1-1V49.24h.82a3,3,0,0,0,3-3,5.36,5.36,0,0,0,1,.27V64.92a1,1,0,0,0,1,1h9.21a1,1,0,0,0,1-1v-9.3a1,1,0,0,0-1.92,0V64H41V47.77a1,1,0,0,0-1.92,0V64H36.36V43.58h7.29V48.2a1,1,0,0,0,1.92,0V46.5a5.77,5.77,0,0,0,1-.26,3,3,0,0,0,3,3h.82V64.92a1,1,0,0,0,1,1h8.44a1,1,0,0,0,1-1V49.24h.81a3,3,0,0,0,3-3V38.36A7.59,7.59,0,0,0,59,31.06"/></g></g></svg>