<svg xmlns="http://www.w3.org/2000/svg" viewBox="0 0 727.61 150.83"><defs><style>.cls-1{fill:#ffd564;}.cls-2{fill:#ff8b94;}.cls-3{fill:none;stroke:#ffd564;stroke-miterlimit:10;stroke-width:3.12px;}.cls-4{fill:#ffa25a;}</style></defs><title>formas-back</title><g id="Capa_2" data-name="Capa 2"><g id="Layer_1" data-name="Layer 1"><path class="cls-1" d="M69.53,143.92c2.61-1.51,4.85-.76,6.64-.15,1.6.54,2.86,1,4.41.07s1.82-2.2,2.15-3.85c.38-1.85.85-4.16,3.47-5.67s4.85-.75,6.64-.15c1.6.54,2.86,1,4.41.08s1.82-2.2,2.15-3.85c.38-1.86.85-4.16,3.47-5.67s4.84-.75,6.64-.15c1.59.54,2.86,1,4.41.07a1.37,1.37,0,0,1,1.36,2.37c-2.62,1.5-4.85.75-6.64.14-1.6-.54-2.86-1-4.41-.07s-1.82,2.2-2.16,3.85c-.38,1.85-.85,4.16-3.46,5.67s-4.85.75-6.64.15c-1.6-.54-2.86-1-4.41-.08s-1.82,2.2-2.16,3.85c-.37,1.86-.84,4.17-3.46,5.67s-4.85.75-6.64.15c-1.6-.54-2.86-1-4.41-.07a1.36,1.36,0,1,1-1.36-2.36Z"/><polygon class="cls-2" points="3.62 18.74 12 30.14 8.38 32.85 0 21.44 3.62 18.74"/><rect class="cls-3" x="713.33" y="4.28" width="10" height="10" transform="translate(203.84 510.65) rotate(-45)"/><circle class="cls-4" cx="641.65" cy="147.08" r="3.75"/></g></g></svg>