<svg xmlns="http://www.w3.org/2000/svg" viewBox="0 0 73.88 78.23"><defs><style>.cls-1{opacity:0.2;}.cls-2{fill:#e56539;}.cls-3{fill:#fff;}.cls-4{fill:#f16226;}</style></defs><title>ic-002_2</title><g id="Capa_2" data-name="Capa 2"><g id="Layer_1" data-name="Layer 1"><g class="cls-1"><path class="cls-2" d="M3.64,21A3.51,3.51,0,1,1,0,24.33,3.5,3.5,0,0,1,3.64,21Z"/></g><g class="cls-1"><path class="cls-2" d="M55,12.55a2.06,2.06,0,1,1-2.13,2A2.05,2.05,0,0,1,55,12.55Z"/></g><g class="cls-1"><circle class="cls-2" cx="62.58" cy="63.65" r="5.33" transform="translate(-9.87 115.79) rotate(-81.23)"/></g><g class="cls-1"><path class="cls-2" d="M24.1,78.23A19.78,19.78,0,0,1,4.71,61.85C3.12,53.66,7.24,45.94,10,38.49c1.35-3.65,2.3-7.6,1.59-11.43C10.66,22.18,7.64,18.14,8.11,13S11.5,3,16.25,1c7.51-3.24,14.06,2.42,19.5,6.85A62.21,62.21,0,0,0,55.46,18.54C61.79,20.66,68,23.4,71.67,29.4a16.64,16.64,0,0,1,.07,16.45c-3.61,6.52-9.83,6.63-16.22,8.84C42.75,59.1,39.27,78.41,24.1,78.23Z"/></g><path class="cls-3" d="M17,14.91H48.32L57.74,25V67.91h-43V46.45a25.25,25.25,0,0,1-4.09-5.68c-1.26-2.75.56-3.86.56-3.86h3.53V32.63L7,32.11s.46-5,2.74-7.53A26.47,26.47,0,0,1,15.88,20Z"/><path class="cls-4" d="M50,24a1,1,0,0,1-1-1V18.15L54.8,24ZM18,20.87V31.39H7.45A11.63,11.63,0,0,1,18,20.87M58,24.33l-9.42-9.41a1,1,0,0,0-.74-.31H17.14A3.11,3.11,0,0,0,14,17.72v2A13.7,13.7,0,0,0,5.34,32.43a1,1,0,0,0,1,1H19a1,1,0,0,0,1-1V19.79a1,1,0,0,0-1-1,14,14,0,0,0-2.91.31V17.72a1,1,0,0,1,1-1H46.85V23A3.1,3.1,0,0,0,50,26.1h6.32V64.51a1,1,0,0,1-1,1H17.14a1,1,0,0,1-1-1V55.64a1,1,0,1,0-2.07,0v8.87a3.11,3.11,0,0,0,3.11,3.1H55.23a3.1,3.1,0,0,0,3.11-3.1V25.07a1.07,1.07,0,0,0-.3-.74"/><path class="cls-4" d="M15.8,51.15a1,1,0,0,0-1.46,0,1,1,0,0,0-.31.73,1,1,0,1,0,2.07,0,1,1,0,0,0-.3-.73"/><path class="cls-4" d="M22.72,47.74A11.63,11.63,0,0,1,11.16,37.17H22.72a1.05,1.05,0,0,0,.73-.3h0l8.17-8.16a11.6,11.6,0,0,1-8.9,19m1-23.16a11.58,11.58,0,0,1,6.41,2.65l-6.41,6.41Zm-1-2.12a1,1,0,0,0-1,1V35.1H10.08a1,1,0,0,0-1,1A13.67,13.67,0,1,0,22.72,22.46"/><path class="cls-4" d="M50.69,51.42a1,1,0,1,1,1-1,1,1,0,0,1-1,1m-10.18,10a1,1,0,1,1,1-1,1,1,0,0,1-1,1m-8.18-7.9a1,1,0,1,1,1-1,1,1,0,0,1-1,1m-7.95,7.9a1,1,0,1,1,0-2.07,1,1,0,0,1,.71.29l0,0h0a1,1,0,0,1-.74,1.75M50.69,47.28a3.11,3.11,0,0,0-3.11,3.11,3.22,3.22,0,0,0,.24,1.21l-6,6a3.1,3.1,0,0,0-2.68,0l-4-4a3,3,0,0,0,.21-1.13,3.11,3.11,0,1,0-6.21,0,3.17,3.17,0,0,0,.29,1.3l-3.8,3.8a3,3,0,0,0-1.33-.31A3.1,3.1,0,1,0,27.18,59L31,55.24a3.08,3.08,0,0,0,1.38.32,3,3,0,0,0,1.53-.4L37.71,59a3,3,0,0,0-.31,1.35,3.11,3.11,0,0,0,6.21,0A3.19,3.19,0,0,0,43.32,59l5.91-5.91a3.11,3.11,0,1,0,1.46-5.85"/><path class="cls-4" d="M45.51,38.94H40.05a1,1,0,1,0,0,2.07h5.46a1,1,0,1,0,0-2.07"/><path class="cls-4" d="M51,39.24a1.05,1.05,0,0,0-.74-.3,1.06,1.06,0,0,0-.73.3,1,1,0,0,0,0,1.46,1,1,0,0,0,.73.31A1,1,0,0,0,51,40.7a1,1,0,0,0,0-1.46"/><path class="cls-4" d="M52.69,29H40.05a1,1,0,1,0,0,2.07H52.69a1,1,0,1,0,0-2.07"/><path class="cls-4" d="M52.69,34H40.05a1,1,0,1,0,0,2.07H52.69a1,1,0,1,0,0-2.07"/></g></g></svg>