<svg xmlns="http://www.w3.org/2000/svg" viewBox="0 0 436.82 475.85"><defs><style>.cls-1{opacity:0.1;}.cls-2{fill:#e56539;}.cls-3{opacity:0.11;}.cls-4{fill:#fff;}.cls-5{fill:#f16226;}</style></defs><title>ic-002_1</title><g id="Capa_2" data-name="Capa 2"><g id="Icon_003" data-name="Icon 003"><g class="cls-1"><path class="cls-2" d="M148.59,51.4a20.39,20.39,0,1,1-28.66,3.17A20.39,20.39,0,0,1,148.59,51.4Z"/></g><g class="cls-1"><path class="cls-2" d="M417.06,190a12,12,0,1,1-16.8,1.86A12,12,0,0,1,417.06,190Z"/></g><g class="cls-1"><circle class="cls-2" cx="169.23" cy="444.94" r="30.91" transform="translate(-265.05 249.99) rotate(-45)"/></g><g class="cls-3"><path class="cls-2" d="M45.74,389.06c-45-34.27-58-92.66-33.65-143.39C33,202,78.93,180.26,117.45,155.08c18.92-12.37,37-27.47,46.92-47.78C177,81.39,176.93,52.14,196.9,29.83,216.47,8,247.25-5,276.49,1.85c46.18,10.88,57.14,59.89,67.15,99.37,10.79,42.51,29.59,82.3,54.69,118.19,22.23,31.77,41.82,66.15,38,106.65-3.15,33.53-26.22,63.16-56.58,76.93C340.36,420.87,311,399.86,273.6,388,198.86,364.43,115.82,442.39,45.74,389.06Z"/></g><path class="cls-4" d="M169.61,297.25a32.51,32.51,0,0,0,32.47-32.47V251.91l-18.51-10.86a48.67,48.67,0,0,1-33.78,13.56H137.12v10.17A32.52,32.52,0,0,0,169.61,297.25Z"/><path class="cls-4" d="M144.26,326l21.93-14.11a6.29,6.29,0,0,1,6.82,0L194.94,326V311.28a6.3,6.3,0,0,1,.17-1.44H144.26Z"/><path class="cls-4" d="M177.61,229a6.3,6.3,0,0,1,8-1.38l16.4,9.63a32.47,32.47,0,0,0-64.9,1.7v3h12.67A36.24,36.24,0,0,0,177.61,229Z"/><path class="cls-4" d="M281.62,268.13a75.52,75.52,0,1,0-75.52-75.52A75.61,75.61,0,0,0,281.62,268.13Zm6.29-13.89a6.29,6.29,0,1,1-12.58,0v-4.46a6.29,6.29,0,0,1,12.58,0Zm50.87-67.92h4.46a6.29,6.29,0,0,1,0,12.58h-4.46a6.29,6.29,0,1,1,0-12.58ZM275.33,131a6.29,6.29,0,1,1,12.58,0v4.46a6.29,6.29,0,1,1-12.58,0ZM259.71,170.6a6.26,6.26,0,0,1,8.89,0l13.13,13.12,24.91-24.92a6.29,6.29,0,1,1,8.9,8.9l-29.37,29.36a6.28,6.28,0,0,1-8.9,0L259.71,179.5A6.27,6.27,0,0,1,259.71,170.6ZM220,198.9a6.29,6.29,0,1,1,0-12.58h4.45a6.29,6.29,0,1,1,0,12.58Z"/><path class="cls-4" d="M264,392.74a6.29,6.29,0,0,1-6.29,6.29H81.49a6.29,6.29,0,0,1-6.29-6.29V353.63a56.44,56.44,0,0,1,56.38-56.38h6.83a44.9,44.9,0,0,1-13.87-32.47V239a45,45,0,0,1,69.39-37.9c-.27-2.78-.41-5.62-.41-8.47a88.2,88.2,0,1,1,21.14,57.2v15a44.9,44.9,0,0,1-13.87,32.47h6.82A56.44,56.44,0,0,1,264,353.63Zm3.13-91.33a6.3,6.3,0,0,1-6.17,5.06,6.51,6.51,0,0,1-1.24-.12A6.29,6.29,0,0,1,262.1,294h.09A6.3,6.3,0,0,1,267.13,301.41Zm14.49,7a6.29,6.29,0,0,1,0-12.58,103.21,103.21,0,1,0-101.81-120.2,6.3,6.3,0,1,1-12.43-2.05A115.8,115.8,0,1,1,281.62,308.4Z"/><path class="cls-4" d="M207.61,309.84h-.26a5.79,5.79,0,0,1,.17,1.44v26.29a6.28,6.28,0,0,1-3.27,5.52,6.23,6.23,0,0,1-6.42-.23l-21.93-14.1v13.65a6.3,6.3,0,0,1-12.6,0V328.76l-21.93,14.1a6.29,6.29,0,0,1-9.69-5.29V309.84h-.1a43.84,43.84,0,0,0-43.8,43.79v32.82H251.4V353.63A43.83,43.83,0,0,0,207.61,309.84Zm-33.56,60a6.28,6.28,0,1,1,1.85-4.46A6.32,6.32,0,0,1,174.05,369.82ZM232.21,365H203.9a6.29,6.29,0,1,1,0-12.58h28.31a6.29,6.29,0,1,1,0,12.58Z"/><path class="cls-5" d="M207.61,297.25h-6.82a44.9,44.9,0,0,0,13.87-32.47v-15a88.06,88.06,0,1,0-21.14-57.2c0,2.85.14,5.69.41,8.47A45,45,0,0,0,124.54,239v25.8a44.9,44.9,0,0,0,13.87,32.47h-6.83A56.44,56.44,0,0,0,75.2,353.63v39.11A6.29,6.29,0,0,0,81.49,399H257.71a6.29,6.29,0,0,0,6.29-6.29V353.63A56.44,56.44,0,0,0,207.61,297.25Zm74-180.16a75.52,75.52,0,1,1-75.52,75.52A75.61,75.61,0,0,1,281.62,117.09ZM137.12,240.7V239a32.47,32.47,0,0,1,64.9-1.7l-16.4-9.63a6.3,6.3,0,0,0-8,1.38,36.24,36.24,0,0,1-27.82,13H137.12Zm0,24.08V254.61h12.67a48.67,48.67,0,0,0,33.78-13.56l18.51,10.86v12.87a32.48,32.48,0,0,1-65,0Zm58,45.06a6.3,6.3,0,0,0-.17,1.44V326L173,311.93a6.29,6.29,0,0,0-6.82,0L144.26,326v-16.2Zm56.29,76.61H87.78V353.63a43.84,43.84,0,0,1,43.8-43.79h.1v27.73a6.29,6.29,0,0,0,9.69,5.29l21.93-14.1v13.65a6.3,6.3,0,0,0,12.6,0V328.76l21.93,14.1a6.29,6.29,0,0,0,9.69-5.29V311.28a5.79,5.79,0,0,0-.17-1.44h.26a43.83,43.83,0,0,1,43.79,43.79Z"/><path class="cls-5" d="M169.61,359.07a6.32,6.32,0,1,0,4.44,1.85A6.35,6.35,0,0,0,169.61,359.07Z"/><path class="cls-5" d="M232.21,352.46H203.9a6.29,6.29,0,1,0,0,12.58h28.31a6.29,6.29,0,1,0,0-12.58Z"/><path class="cls-5" d="M281.62,76.82a115.86,115.86,0,0,0-114.24,96.75,6.3,6.3,0,1,0,12.43,2.05,103.21,103.21,0,1,1,101.81,120.2,6.29,6.29,0,0,0,0,12.58,115.79,115.79,0,1,0,0-231.58Z"/><path class="cls-5" d="M262.19,294h-.09a6.29,6.29,0,0,0-2.38,12.36,6.51,6.51,0,0,0,1.24.12A6.3,6.3,0,0,0,262.19,294Z"/><path class="cls-5" d="M277.27,197.06a6.28,6.28,0,0,0,8.9,0l29.37-29.36a6.29,6.29,0,1,0-8.9-8.9l-24.91,24.92L268.6,170.6a6.29,6.29,0,1,0-8.89,8.9Z"/><path class="cls-5" d="M281.62,141.74a6.28,6.28,0,0,0,6.29-6.29V131a6.29,6.29,0,1,0-12.58,0v4.46A6.28,6.28,0,0,0,281.62,141.74Z"/><path class="cls-5" d="M281.62,243.49a6.28,6.28,0,0,0-6.29,6.29v4.46a6.29,6.29,0,1,0,12.58,0v-4.46A6.29,6.29,0,0,0,281.62,243.49Z"/><path class="cls-5" d="M338.78,198.9h4.46a6.29,6.29,0,0,0,0-12.58h-4.46a6.29,6.29,0,1,0,0,12.58Z"/><path class="cls-5" d="M230.74,192.61a6.28,6.28,0,0,0-6.29-6.29H220a6.29,6.29,0,1,0,0,12.58h4.45A6.27,6.27,0,0,0,230.74,192.61Z"/></g></g></svg>