<svg xmlns="http://www.w3.org/2000/svg" viewBox="0 0 75.76 69.61"><defs><style>.cls-1{opacity:0.1;}.cls-2{fill:#e56539;}.cls-3{opacity:0.11;}.cls-4{fill:#fff;}.cls-5{fill:#f16226;}</style></defs><title>ic-003_2_1</title><g id="Capa_2" data-name="Capa 2"><g id="Layer_1" data-name="Layer 1"><g class="cls-1"><path class="cls-2" d="M74.44,14.7a3.51,3.51,0,1,1-4.94.55A3.51,3.51,0,0,1,74.44,14.7Z"/></g><g class="cls-1"><path class="cls-2" d="M11.7,17a2.5,2.5,0,1,1-3.52.39A2.5,2.5,0,0,1,11.7,17Z"/></g><g class="cls-3"><path class="cls-2" d="M7.88,61.53a19.79,19.79,0,0,1-5.8-24.71C5.69,29.29,9.34,30,16,25.65c3.26-2.13,6.37-4.74,8.08-8.24C26.24,13,30.18,9,33.62,5.14S42.3-.87,47.33.32c8,1.87,10.16,4.8,11.89,11.61a62.38,62.38,0,0,0,9.42,20.36c3.83,5.48,7.21,11.4,6.55,18.38a16.67,16.67,0,0,1-9.75,13.26c-6.79,3.08-15.4,5.9-25,5.67C27,69.27,20,70.72,7.88,61.53Z"/></g><path class="cls-4" d="M56.35,38.06v2.48a1.07,1.07,0,1,1-2.14,0v-1.4H51.12a1.08,1.08,0,1,1,0-2.15h4.16A1.07,1.07,0,0,1,56.35,38.06Zm-33-26.85A3.23,3.23,0,0,1,26.57,8H48.7a3.23,3.23,0,0,1,3.22,3.23V27.53a3.23,3.23,0,0,1-3.22,3.23H26.57a3.23,3.23,0,0,1-3.22-3.23Zm25,26.85a1.09,1.09,0,0,1-.32.76,1.07,1.07,0,0,1-.75.32,1.12,1.12,0,0,1-.77-.32,1.09,1.09,0,0,1,0-1.52,1.11,1.11,0,0,1,.77-.31,1.06,1.06,0,0,1,.75.31A1.09,1.09,0,0,1,48.38,38.06Zm-29.44,0A1.08,1.08,0,0,1,20,37H36.56V34a1.08,1.08,0,1,1,2.15,0v3h4.65a1.08,1.08,0,0,1,0,2.15H38.71v1.4a1.08,1.08,0,1,1-2.15,0v-1.4H21.09v1.4a1.08,1.08,0,1,1-2.15,0Zm46.2,23.85A1.07,1.07,0,0,1,64.06,63H11.21a1.07,1.07,0,0,1-1.07-1.07v-4a6,6,0,0,1,5.78-6A5,5,0,0,1,15,49.09v-1a5,5,0,0,1,10,0v1a4.93,4.93,0,0,1-.9,2.85,6,6,0,0,1,4.72,2.55,6,6,0,0,1,4.71-2.55,5,5,0,0,1-.89-2.85v-1a5,5,0,0,1,10,0v1a5,5,0,0,1-.89,2.85,5.94,5.94,0,0,1,4.71,2.55,6,6,0,0,1,4.72-2.55,5,5,0,0,1-.9-2.85v-1a5,5,0,0,1,10,0v1a5,5,0,0,1-.89,2.85,6,6,0,0,1,5.79,6Z"/><path class="cls-4" d="M23.93,54.08H21.09v3.38a1.08,1.08,0,0,1-2.15,0V54.08H16.1a3.83,3.83,0,0,0-3.82,3.82v2.94H27.75V57.9A3.82,3.82,0,0,0,23.93,54.08Z"/><path class="cls-4" d="M20,51.93a2.84,2.84,0,0,0,2.84-2.84v-1a2.84,2.84,0,0,0-5.68,0v1A2.84,2.84,0,0,0,20,51.93Z"/><path class="cls-4" d="M26.57,28.61H48.7a1.07,1.07,0,0,0,1.07-1.08V11.21a1.08,1.08,0,0,0-1.07-1.08H26.57a1.08,1.08,0,0,0-1.07,1.08V27.53A1.07,1.07,0,0,0,26.57,28.61Zm9.63-16a1,1,0,0,1,.76-.32A1.08,1.08,0,0,1,38,13.35a1,1,0,0,1-.31.76,1.07,1.07,0,0,1-.76.32,1,1,0,0,1-.76-.32,1.06,1.06,0,0,1-.32-.76A1.07,1.07,0,0,1,36.2,12.6Zm-3.94,0a1.05,1.05,0,1,1-.32.75A1.07,1.07,0,0,1,32.26,12.6Zm-1.61,8.19,3.27-3.28a1.07,1.07,0,0,1,1.52,0l3.69,3.69,5.92-5.92a1.08,1.08,0,0,1,.17-2.14h2.41a1.08,1.08,0,0,1,1.07,1.08v2.4a1.07,1.07,0,0,1-2.13.17l-6.68,6.69a1.07,1.07,0,0,1-.76.31,1.06,1.06,0,0,1-.76-.31l-3.69-3.69-2.51,2.52a1.07,1.07,0,0,1-1.52-1.52ZM28.32,12.6a1.05,1.05,0,1,1-.32.75A1.07,1.07,0,0,1,28.32,12.6Zm-.16,10.67a1.09,1.09,0,1,1-.31.76A1.08,1.08,0,0,1,28.16,23.27Z"/><path class="cls-4" d="M41.55,54.08H38.72v3.38a1.07,1.07,0,0,1-2.14,0V54.08H33.72A3.83,3.83,0,0,0,29.9,57.9v2.94H45.37V57.9A3.82,3.82,0,0,0,41.55,54.08Z"/><path class="cls-4" d="M55.25,51.93a2.84,2.84,0,0,0,2.84-2.84v-1a2.84,2.84,0,0,0-5.68,0v1A2.84,2.84,0,0,0,55.25,51.93Z"/><path class="cls-4" d="M37.64,51.93a2.84,2.84,0,0,0,2.84-2.84v-1a2.84,2.84,0,1,0-5.68,0v1A2.84,2.84,0,0,0,37.64,51.93Z"/><path class="cls-4" d="M59.17,54.08H56.35v3.38a1.07,1.07,0,1,1-2.14,0V54.08H51.34a3.82,3.82,0,0,0-3.82,3.82v2.94H63V57.9A3.83,3.83,0,0,0,59.17,54.08Z"/><path class="cls-5" d="M59.35,51.94a5,5,0,0,0,.89-2.85v-1a5,5,0,0,0-10,0v1a5,5,0,0,0,.9,2.85,6,6,0,0,0-4.72,2.55,5.94,5.94,0,0,0-4.71-2.55,5,5,0,0,0,.89-2.85v-1a5,5,0,0,0-10,0v1a5,5,0,0,0,.89,2.85,6,6,0,0,0-4.71,2.55,6,6,0,0,0-4.72-2.55,4.93,4.93,0,0,0,.9-2.85v-1a5,5,0,0,0-10,0v1a5,5,0,0,0,.89,2.85,6,6,0,0,0-5.78,6v4A1.07,1.07,0,0,0,11.21,63H64.06a1.07,1.07,0,0,0,1.08-1.07v-4A6,6,0,0,0,59.35,51.94ZM17.18,48.11a2.84,2.84,0,0,1,5.68,0v1a2.84,2.84,0,0,1-5.68,0ZM27.75,60.84H12.28V57.9a3.83,3.83,0,0,1,3.82-3.82h2.84v3.38a1.08,1.08,0,0,0,2.15,0V54.08h2.84a3.82,3.82,0,0,1,3.82,3.82Zm7-12.73a2.84,2.84,0,1,1,5.68,0v1a2.84,2.84,0,1,1-5.68,0ZM45.37,60.84H29.9V57.9a3.83,3.83,0,0,1,3.82-3.82h2.86v3.38a1.07,1.07,0,0,0,2.14,0V54.08h2.83a3.82,3.82,0,0,1,3.82,3.82Zm7-12.73a2.84,2.84,0,0,1,5.68,0v1a2.84,2.84,0,1,1-5.68,0ZM63,60.84H47.52V57.9a3.82,3.82,0,0,1,3.82-3.82h2.87v3.38a1.07,1.07,0,1,0,2.14,0V54.08h2.82A3.83,3.83,0,0,1,63,57.9Z"/><path class="cls-5" d="M20,41.62a1.08,1.08,0,0,0,1.07-1.08v-1.4H36.56v1.4a1.08,1.08,0,1,0,2.15,0v-1.4h4.65a1.08,1.08,0,0,0,0-2.15H38.71V34a1.08,1.08,0,1,0-2.15,0v3H20a1.08,1.08,0,0,0-1.08,1.07v2.48A1.09,1.09,0,0,0,20,41.62Z"/><path class="cls-5" d="M46.54,37.3a1.09,1.09,0,0,0,0,1.52,1.12,1.12,0,0,0,.77.32,1.07,1.07,0,0,0,.75-.32,1.06,1.06,0,0,0,0-1.52,1.06,1.06,0,0,0-.75-.31A1.11,1.11,0,0,0,46.54,37.3Z"/><path class="cls-5" d="M50,38.06a1.08,1.08,0,0,0,1.08,1.08h3.09v1.4a1.07,1.07,0,1,0,2.14,0V38.06A1.07,1.07,0,0,0,55.28,37H51.12A1.08,1.08,0,0,0,50,38.06Z"/><path class="cls-5" d="M26.57,30.76H48.7a3.23,3.23,0,0,0,3.22-3.23V11.21A3.23,3.23,0,0,0,48.7,8H26.57a3.23,3.23,0,0,0-3.22,3.23V27.53A3.23,3.23,0,0,0,26.57,30.76ZM25.5,11.21a1.08,1.08,0,0,1,1.07-1.08H48.7a1.08,1.08,0,0,1,1.07,1.08V27.53a1.07,1.07,0,0,1-1.07,1.08H26.57a1.07,1.07,0,0,1-1.07-1.08Z"/><path class="cls-5" d="M32.17,22.31l2.51-2.52,3.69,3.69a1.06,1.06,0,0,0,.76.31,1.07,1.07,0,0,0,.76-.31l6.68-6.69a1.07,1.07,0,0,0,2.13-.17v-2.4a1.08,1.08,0,0,0-1.07-1.08H45.22a1.08,1.08,0,0,0-.17,2.14L39.13,21.2l-3.69-3.69a1.07,1.07,0,0,0-1.52,0l-3.27,3.28a1.07,1.07,0,0,0,1.52,1.52Z"/><path class="cls-5" d="M28.92,25.1a1.06,1.06,0,1,0-.76-.31A1.08,1.08,0,0,0,28.92,25.1Z"/><path class="cls-5" d="M29.08,14.43a1.08,1.08,0,1,0-.76-1.83,1.07,1.07,0,0,0-.32.75,1.09,1.09,0,0,0,1.08,1.08Z"/><path class="cls-5" d="M33,14.43a1.08,1.08,0,1,0-.76-1.83,1.07,1.07,0,0,0-.32.75A1.09,1.09,0,0,0,33,14.43Z"/><path class="cls-5" d="M37,14.43a1.07,1.07,0,0,0,.76-.32,1,1,0,0,0,.31-.76A1.08,1.08,0,0,0,37,12.28a1,1,0,0,0-.76.32,1.07,1.07,0,0,0-.32.75,1.06,1.06,0,0,0,.32.76A1,1,0,0,0,37,14.43Z"/></g></g></svg>