<svg xmlns="http://www.w3.org/2000/svg" viewBox="0 0 75.27 82"><defs><style>.cls-1{opacity:0.1;}.cls-2{fill:#e56539;}.cls-3{opacity:0.2;}.cls-4{fill:#fff;}.cls-5{fill:#f16226;}</style></defs><title>ic-001_2_1</title><g id="Capa_2" data-name="Capa 2"><g id="Layer_1" data-name="Layer 1"><g class="cls-1"><path class="cls-2" d="M25.6,8.86a3.51,3.51,0,1,1-4.93.54A3.51,3.51,0,0,1,25.6,8.86Z"/></g><g class="cls-1"><path class="cls-2" d="M71.87,32.73a2.06,2.06,0,1,1-2.9.32A2.07,2.07,0,0,1,71.87,32.73Z"/></g><g class="cls-1"><circle class="cls-2" cx="29.16" cy="76.67" r="5.33" transform="translate(-45.67 43.08) rotate(-45)"/></g><g class="cls-3"><path class="cls-2" d="M7.88,67a19.77,19.77,0,0,1-5.8-24.7C5.69,34.81,13.6,31.06,20.24,26.72c3.26-2.13,6.38-4.73,8.09-8.23C30.5,14,30.49,9,33.93,5.14s8.68-6,13.71-4.82c8,1.87,9.85,10.32,11.58,17.12a62.43,62.43,0,0,0,9.42,20.37c3.83,5.47,7.21,11.4,6.55,18.38a16.64,16.64,0,0,1-9.75,13.25c-6.79,3.09-11.84-.54-18.29-2.57C34.27,62.8,20,76.23,7.88,67Z"/></g><path class="cls-4" d="M21.25,42.76a8.69,8.69,0,0,0-4.32,7.49v6.9h4.52a3.28,3.28,0,0,1-.2-1.13Z"/><path class="cls-4" d="M38.3,66.92l.47.47.47-.47a12,12,0,0,0,3.51-7.49h-8A12,12,0,0,0,38.3,66.92Z"/><path class="cls-4" d="M36.74,40.22l2.38,2.38,6.25-6.25A8.07,8.07,0,0,0,30.69,41a7.94,7.94,0,0,0,.61,3l3.83-3.83A1.13,1.13,0,0,1,36.74,40.22Z"/><path class="cls-4" d="M38.77,14.33a31.47,31.47,0,0,0-9.05,8.24h18.1A31.34,31.34,0,0,0,38.77,14.33Z"/><path class="cls-4" d="M56.29,42.76V56a3.53,3.53,0,0,1-.19,1.13h4.51v-6.9A8.67,8.67,0,0,0,56.29,42.76Z"/><path class="cls-4" d="M29,67.11a1.14,1.14,0,1,1-2.28,0v-3.5a1.14,1.14,0,1,1,2.28,0ZM50.5,69.79a1.18,1.18,0,0,1-.81.33,1.14,1.14,0,0,1-.8-.33,1.15,1.15,0,0,1,0-1.61,1.14,1.14,0,0,1,.8-.33,1.18,1.18,0,0,1,.81.33,1.15,1.15,0,0,1,0,1.61Zm12.39-11.5a1.14,1.14,0,0,1-1.14,1.14H50.83V65.3a1.14,1.14,0,1,1-2.27,0V59.43H45a14.3,14.3,0,0,1-4.19,9.12L39.57,69.8a1.16,1.16,0,0,1-1.6,0L36.7,68.55a14.3,14.3,0,0,1-4.19-9.12H15.79a1.14,1.14,0,0,1-1.14-1.14v-8a10.92,10.92,0,0,1,6.62-10A33.73,33.73,0,0,1,38.21,12a1.14,1.14,0,0,1,1.13,0A33.69,33.69,0,0,1,56.27,40.22a10.92,10.92,0,0,1,6.62,10Z"/><path class="cls-4" d="M28.18,24.85c-.46.76-.9,1.53-1.29,2.33H31a1.14,1.14,0,1,1,0,2.27H25.85a31.42,31.42,0,0,0-2.32,11.84V56a1.14,1.14,0,0,0,1.14,1.13H52.88A1.14,1.14,0,0,0,54,56V41.29a31.43,31.43,0,0,0-4.65-16.44Zm6.14,2.66a1.18,1.18,0,0,1,.81-.33,1.14,1.14,0,0,1,1.14,1.14,1.1,1.1,0,0,1-.34.8,1.14,1.14,0,0,1-.8.33A1.13,1.13,0,0,1,34,28.32,1.2,1.2,0,0,1,34.32,27.51Zm4.45,23.84a10.35,10.35,0,0,1-8.67-4.7,1.63,1.63,0,0,1-.11-.17,10.35,10.35,0,1,1,8.78,4.87Z"/><path class="cls-4" d="M38.32,45l-2.38-2.39-3.45,3.44A8.07,8.07,0,0,0,46.85,41a8,8,0,0,0-.4-2.51L39.93,45A1.15,1.15,0,0,1,38.32,45Z"/><path class="cls-5" d="M38.77,30.65A10.35,10.35,0,0,0,30,46.48a1.63,1.63,0,0,0,.11.17,10.35,10.35,0,1,0,8.67-16ZM31.3,44.05a7.94,7.94,0,0,1-.61-3,8.07,8.07,0,0,1,14.68-4.65L39.12,42.6l-2.38-2.38a1.13,1.13,0,0,0-1.61,0Zm15.55-3a8.07,8.07,0,0,1-14.36,5.07l3.45-3.44L38.32,45a1.15,1.15,0,0,0,1.61,0l6.52-6.53A8,8,0,0,1,46.85,41Z"/><path class="cls-5" d="M56.27,40.22A33.69,33.69,0,0,0,39.34,12a1.14,1.14,0,0,0-1.13,0A33.73,33.73,0,0,0,21.27,40.22a10.92,10.92,0,0,0-6.62,10v8a1.14,1.14,0,0,0,1.14,1.14H32.51a14.3,14.3,0,0,0,4.19,9.12L38,69.8a1.16,1.16,0,0,0,1.6,0l1.27-1.25A14.3,14.3,0,0,0,45,59.43h3.53V65.3a1.14,1.14,0,1,0,2.27,0V59.43H61.75a1.14,1.14,0,0,0,1.14-1.14v-8A10.92,10.92,0,0,0,56.27,40.22ZM38.77,14.33a31.34,31.34,0,0,1,9,8.24H29.72A31.47,31.47,0,0,1,38.77,14.33ZM16.93,57.15v-6.9a8.69,8.69,0,0,1,4.32-7.49V56a3.28,3.28,0,0,0,.2,1.13Zm22.31,9.77-.47.47-.47-.47a12,12,0,0,1-3.51-7.49h8A12,12,0,0,1,39.24,66.92ZM54,56a1.14,1.14,0,0,1-1.13,1.13H24.67A1.14,1.14,0,0,1,23.53,56V41.29a31.42,31.42,0,0,1,2.32-11.84H31a1.14,1.14,0,1,0,0-2.27H26.89c.39-.8.83-1.57,1.29-2.33H49.36A31.43,31.43,0,0,1,54,41.29Zm6.6,1.13H56.1A3.53,3.53,0,0,0,56.29,56V42.76a8.67,8.67,0,0,1,4.32,7.49Z"/><path class="cls-5" d="M35.13,29.45a1.14,1.14,0,0,0,.8-.33,1.1,1.1,0,0,0,.34-.8,1.14,1.14,0,0,0-1.14-1.14,1.18,1.18,0,0,0-.81.33,1.2,1.2,0,0,0-.33.81,1.13,1.13,0,0,0,1.14,1.13Z"/><path class="cls-5" d="M27.85,62.47a1.14,1.14,0,0,0-1.14,1.14v3.5a1.14,1.14,0,1,0,2.28,0v-3.5A1.14,1.14,0,0,0,27.85,62.47Z"/><path class="cls-5" d="M49.69,67.85a1.14,1.14,0,0,0-.8.33,1.15,1.15,0,0,0,0,1.61,1.14,1.14,0,0,0,.8.33,1.18,1.18,0,0,0,.81-.33,1.15,1.15,0,0,0,0-1.61A1.18,1.18,0,0,0,49.69,67.85Z"/></g></g></svg>