<svg xmlns="http://www.w3.org/2000/svg" viewBox="0 0 436.82 475.85"><defs><style>.cls-1{opacity:0.1;}.cls-2{fill:#e56539;}.cls-3{opacity:0.11;}.cls-4{fill:#fff;}.cls-5{fill:#f16226;}</style></defs><title>ic-003_1</title><g id="Capa_2" data-name="Capa 2"><g id="Icon_004" data-name="Icon 004"><g class="cls-1"><path class="cls-2" d="M148.59,51.4a20.39,20.39,0,1,1-28.66,3.17A20.39,20.39,0,0,1,148.59,51.4Z"/></g><g class="cls-1"><path class="cls-2" d="M417.06,190a12,12,0,1,1-16.8,1.86A12,12,0,0,1,417.06,190Z"/></g><g class="cls-1"><circle class="cls-2" cx="169.23" cy="444.94" r="30.91" transform="translate(-265.05 249.99) rotate(-45)"/></g><g class="cls-3"><path class="cls-2" d="M45.74,389.06c-45-34.27-58-92.66-33.65-143.39C33,202,78.93,180.26,117.45,155.08c18.92-12.37,37-27.47,46.92-47.78C177,81.39,176.93,52.14,196.9,29.83,216.47,8,247.25-5,276.49,1.85c46.18,10.88,57.14,59.89,67.15,99.37,10.79,42.51,29.59,82.3,54.69,118.19,22.23,31.77,41.82,66.15,38,106.65-3.15,33.53-26.22,63.16-56.58,76.93C340.36,420.87,311,399.86,273.6,388,198.86,364.43,115.82,442.39,45.74,389.06Z"/></g><path class="cls-4" d="M330,253.3v14.77a6.4,6.4,0,1,1-12.8,0v-8.36H298.8a6.41,6.41,0,0,1,0-12.81h24.83A6.4,6.4,0,0,1,330,253.3ZM133.2,93.14a19.24,19.24,0,0,1,19.22-19.21h132A19.23,19.23,0,0,1,303.6,93.14v97.38a19.25,19.25,0,0,1-19.21,19.23h-132a19.25,19.25,0,0,1-19.22-19.23ZM282.47,253.31a6.41,6.41,0,0,1-10.94,4.52,6.47,6.47,0,0,1-1.88-4.52,6.54,6.54,0,0,1,1.88-4.54,6.41,6.41,0,0,1,10.94,4.54Zm-175.54,0a6.42,6.42,0,0,1,6.42-6.4H212V229.23a6.41,6.41,0,1,1,12.81,0V246.9h27.71a6.41,6.41,0,0,1,0,12.81H224.81v8.36a6.41,6.41,0,1,1-12.81,0v-8.36H119.76v8.36a6.42,6.42,0,1,1-12.83,0ZM382.41,395.52a6.4,6.4,0,0,1-6.41,6.4H60.81a6.39,6.39,0,0,1-6.4-6.4v-23.9a35.61,35.61,0,0,1,34.51-35.57,29.6,29.6,0,0,1-5.33-17v-5.84a29.75,29.75,0,0,1,59.5,0v5.84a29.46,29.46,0,0,1-5.33,17,35.53,35.53,0,0,1,28.11,15.23A35.59,35.59,0,0,1,194,336.05a29.6,29.6,0,0,1-5.33-17v-5.84a29.75,29.75,0,0,1,59.5,0v5.84a29.6,29.6,0,0,1-5.33,17,35.53,35.53,0,0,1,28.11,15.23,35.55,35.55,0,0,1,28.12-15.23,29.54,29.54,0,0,1-5.34-17v-5.84a29.76,29.76,0,0,1,59.51,0v5.84a29.6,29.6,0,0,1-5.33,17,35.63,35.63,0,0,1,34.52,35.57Z"/><path class="cls-4" d="M136.69,348.83H119.76V369a6.42,6.42,0,1,1-12.83,0V348.83H90a22.81,22.81,0,0,0-22.77,22.79v17.49h92.25V371.62A22.81,22.81,0,0,0,136.69,348.83Z"/><path class="cls-4" d="M113.35,336a17,17,0,0,0,16.94-16.94v-5.84a16.95,16.95,0,0,0-33.89,0v5.84A17,17,0,0,0,113.35,336Z"/><path class="cls-4" d="M152.42,196.93h132a6.41,6.41,0,0,0,6.4-6.41V93.14a6.41,6.41,0,0,0-6.4-6.4h-132a6.41,6.41,0,0,0-6.4,6.4v97.38A6.41,6.41,0,0,0,152.42,196.93Zm57.4-95.5a6.4,6.4,0,1,1-1.88,4.52A6.45,6.45,0,0,1,209.82,101.43Zm-23.49,0a6.4,6.4,0,0,1,9.06,0,6.4,6.4,0,0,1,0,9.06A6.41,6.41,0,0,1,184.45,106,6.53,6.53,0,0,1,186.33,101.43Zm-9.62,48.86,19.54-19.53a6.36,6.36,0,0,1,9.05,0l22,22,35.33-35.32a6.4,6.4,0,0,1,1-12.72H278a6.4,6.4,0,0,1,6.4,6.4v14.35a6.39,6.39,0,0,1-12.71,1l-39.86,39.85a6.39,6.39,0,0,1-9,0l-22-22-15,15a6.41,6.41,0,1,1-9.08-9.05Zm-13.87-48.86A6.4,6.4,0,1,1,161,106,6.43,6.43,0,0,1,162.84,101.43Zm-.94,63.67A6.41,6.41,0,1,1,166.44,176a6.35,6.35,0,0,1-6.4-6.4A6.44,6.44,0,0,1,161.9,165.1Z"/><path class="cls-4" d="M241.75,348.83H224.9V369a6.41,6.41,0,1,1-12.82,0V348.83h-17a22.8,22.8,0,0,0-22.76,22.79v17.49h92.23V371.62A22.8,22.8,0,0,0,241.75,348.83Z"/><path class="cls-4" d="M323.47,336a17,17,0,0,0,16.93-16.94v-5.84a16.94,16.94,0,0,0-33.87,0v5.84A17,17,0,0,0,323.47,336Z"/><path class="cls-4" d="M218.41,336a17,17,0,0,0,16.93-16.94v-5.84a16.94,16.94,0,0,0-33.87,0v5.84A17,17,0,0,0,218.41,336Z"/><path class="cls-4" d="M346.82,348.83H330V369a6.41,6.41,0,1,1-12.81,0V348.83H300.11a22.82,22.82,0,0,0-22.78,22.79v17.49h92.25V371.62A22.8,22.8,0,0,0,346.82,348.83Z"/><path class="cls-5" d="M347.89,336.05a29.6,29.6,0,0,0,5.33-17v-5.84a29.76,29.76,0,0,0-59.51,0v5.84a29.54,29.54,0,0,0,5.34,17,35.55,35.55,0,0,0-28.12,15.23,35.53,35.53,0,0,0-28.11-15.23,29.6,29.6,0,0,0,5.33-17v-5.84a29.75,29.75,0,0,0-59.5,0v5.84a29.6,29.6,0,0,0,5.33,17,35.59,35.59,0,0,0-28.11,15.23,35.53,35.53,0,0,0-28.11-15.23,29.46,29.46,0,0,0,5.33-17v-5.84a29.75,29.75,0,0,0-59.5,0v5.84a29.6,29.6,0,0,0,5.33,17,35.61,35.61,0,0,0-34.51,35.57v23.9a6.39,6.39,0,0,0,6.4,6.4H376a6.4,6.4,0,0,0,6.41-6.4v-23.9A35.63,35.63,0,0,0,347.89,336.05ZM96.4,313.24a16.95,16.95,0,0,1,33.89,0v5.84a16.95,16.95,0,0,1-33.89,0Zm63.07,75.87H67.22V371.62A22.81,22.81,0,0,1,90,348.83h16.94V369a6.42,6.42,0,1,0,12.83,0V348.83h16.93a22.81,22.81,0,0,1,22.78,22.79Zm42-75.87a16.94,16.94,0,0,1,33.87,0v5.84a16.94,16.94,0,1,1-33.87,0Zm63,75.87H172.29V371.62a22.8,22.8,0,0,1,22.76-22.79h17V369a6.41,6.41,0,1,0,12.82,0V348.83h16.85a22.8,22.8,0,0,1,22.77,22.79Zm42-75.87a16.94,16.94,0,0,1,33.87,0v5.84a16.94,16.94,0,1,1-33.87,0Zm63.05,75.87H277.33V371.62a22.82,22.82,0,0,1,22.78-22.79h17.11V369A6.41,6.41,0,1,0,330,369V348.83h16.79a22.8,22.8,0,0,1,22.76,22.79Z"/><path class="cls-5" d="M113.35,274.49a6.42,6.42,0,0,0,6.41-6.42v-8.36H212v8.36a6.41,6.41,0,1,0,12.81,0v-8.36h27.71a6.41,6.41,0,0,0,0-12.81H224.81V229.23a6.41,6.41,0,1,0-12.81,0V246.9H113.35a6.42,6.42,0,0,0-6.42,6.4v14.77A6.43,6.43,0,0,0,113.35,274.49Z"/><path class="cls-5" d="M271.53,248.77a6.54,6.54,0,0,0-1.88,4.54,6.41,6.41,0,0,0,10.94,4.52,6.41,6.41,0,0,0-9.06-9.06Z"/><path class="cls-5" d="M292.4,253.3a6.41,6.41,0,0,0,6.4,6.41h18.43v8.36a6.4,6.4,0,1,0,12.8,0V253.3a6.4,6.4,0,0,0-6.4-6.4H298.8A6.41,6.41,0,0,0,292.4,253.3Z"/><path class="cls-5" d="M152.42,209.75h132a19.25,19.25,0,0,0,19.21-19.23V93.14a19.23,19.23,0,0,0-19.21-19.21h-132A19.24,19.24,0,0,0,133.2,93.14v97.38A19.25,19.25,0,0,0,152.42,209.75ZM146,93.14a6.41,6.41,0,0,1,6.4-6.4h132a6.41,6.41,0,0,1,6.4,6.4v97.38a6.41,6.41,0,0,1-6.4,6.41h-132a6.41,6.41,0,0,1-6.4-6.41Z"/><path class="cls-5" d="M185.79,159.34l15-15,22,22a6.39,6.39,0,0,0,9,0l39.86-39.85a6.39,6.39,0,0,0,12.71-1V111.1a6.4,6.4,0,0,0-6.4-6.4H263.63a6.4,6.4,0,0,0-1,12.72l-35.33,35.32-22-22a6.36,6.36,0,0,0-9.05,0l-19.54,19.53a6.41,6.41,0,1,0,9.08,9.05Z"/><path class="cls-5" d="M166.44,176a6.35,6.35,0,0,0,6.39-6.4,6.4,6.4,0,1,0-12.79,0,6.35,6.35,0,0,0,6.4,6.4Z"/><path class="cls-5" d="M167.37,112.37a6.41,6.41,0,1,0-4.53-10.94,6.41,6.41,0,0,0,4.53,10.94Z"/><path class="cls-5" d="M190.85,112.37a6.42,6.42,0,0,0,6.42-6.42,6.53,6.53,0,0,0-1.88-4.52,6.4,6.4,0,0,0-9.06,0,6.4,6.4,0,0,0,0,9.06A6.42,6.42,0,0,0,190.85,112.37Z"/><path class="cls-5" d="M214.36,112.37a6.42,6.42,0,1,0-4.54-1.88A6.44,6.44,0,0,0,214.36,112.37Z"/></g></g></svg>