<svg xmlns="http://www.w3.org/2000/svg" viewBox="0 0 436.82 475.85"><defs><style>.cls-1{opacity:0.1;}.cls-2{fill:#e56539;}.cls-3{opacity:0.11;}.cls-4{fill:#fff;}.cls-5{fill:#f16226;}</style></defs><title>ic-001_1</title><g id="Capa_2" data-name="Capa 2"><g id="Capa_6" data-name="Capa 6"><g class="cls-1"><path class="cls-2" d="M148.59,51.4a20.39,20.39,0,1,1-28.66,3.17A20.39,20.39,0,0,1,148.59,51.4Z"/></g><g class="cls-1"><path class="cls-2" d="M417.06,190a12,12,0,1,1-16.8,1.86A12,12,0,0,1,417.06,190Z"/></g><g class="cls-1"><circle class="cls-2" cx="169.23" cy="444.94" r="30.91" transform="translate(-265.05 249.99) rotate(-45)"/></g><g class="cls-3"><path class="cls-2" d="M45.74,389.06c-45-34.27-58-92.66-33.65-143.39C33,202,78.93,180.26,117.45,155.08c18.92-12.37,37-27.47,46.92-47.78C177,81.39,176.93,52.14,196.9,29.83,216.47,8,247.25-5,276.49,1.85c46.18,10.88,57.14,59.89,67.15,99.37,10.79,42.51,29.59,82.3,54.69,118.19,22.23,31.77,41.82,66.15,38,106.65-3.15,33.53-26.22,63.16-56.58,76.93C340.36,420.87,311,399.86,273.6,388,198.86,364.43,115.82,442.39,45.74,389.06Z"/></g><path class="cls-4" d="M116.75,248.16a50.27,50.27,0,0,0-25.09,43.47v40h26.23a19.52,19.52,0,0,1-1.14-6.6Z"/><path class="cls-4" d="M215.68,388.36l2.74,2.7,2.73-2.7a69.56,69.56,0,0,0,20.36-43.48h-46.2A69.68,69.68,0,0,0,215.68,388.36Z"/><path class="cls-4" d="M206.63,233.4l13.83,13.82L256.72,211A46.85,46.85,0,0,0,175,255.65l22.25-22.25A6.6,6.6,0,0,1,206.63,233.4Z"/><path class="cls-4" d="M218.42,83.18A182.3,182.3,0,0,0,165.88,131H270.94A182.48,182.48,0,0,0,218.42,83.18Z"/><path class="cls-4" d="M320.08,248.16v76.91a20,20,0,0,1-1.13,6.6h26.21v-40A50.24,50.24,0,0,0,320.08,248.16Z"/><path class="cls-4" d="M161.65,389.47a6.61,6.61,0,0,1-13.22,0V369.13a6.61,6.61,0,0,1,13.22,0ZM286.46,405a6.61,6.61,0,1,1,1.93-4.67A6.7,6.7,0,0,1,286.46,405Zm71.91-66.73a6.61,6.61,0,0,1-6.61,6.61H288.39V379a6.6,6.6,0,1,1-13.2,0V344.88H254.76a82.88,82.88,0,0,1-24.35,52.89L223.05,405a6.6,6.6,0,0,1-9.27,0l-7.36-7.26a83,83,0,0,1-24.36-52.89h-97a6.61,6.61,0,0,1-6.61-6.61V291.63a63.45,63.45,0,0,1,38.4-58.26A195.8,195.8,0,0,1,215.14,69.79a6.67,6.67,0,0,1,6.56,0A195.78,195.78,0,0,1,320,233.37a63.42,63.42,0,0,1,38.4,58.26Z"/><path class="cls-4" d="M157,144.18q-4.06,6.62-7.54,13.53h23.89a6.61,6.61,0,0,1,0,13.21H143.44A182.15,182.15,0,0,0,130,239.63v85.44a6.61,6.61,0,0,0,6.61,6.6H300.28a6.6,6.6,0,0,0,6.59-6.6V239.63a182.65,182.65,0,0,0-27-95.45Zm35.63,15.47a6.64,6.64,0,1,1-1.92,4.67A6.69,6.69,0,0,1,192.61,159.65ZM218.41,298a60.05,60.05,0,0,1-50.32-27.3,5.74,5.74,0,0,1-.62-1A60.05,60.05,0,1,1,218.41,298Z"/><path class="cls-4" d="M215.79,261.23,202,247.39l-20,20a46.84,46.84,0,0,0,83.3-29.44A46.3,46.3,0,0,0,263,223.39l-37.83,37.84A6.6,6.6,0,0,1,215.79,261.23Z"/><path class="cls-5" d="M218.41,177.85a60,60,0,0,0-50.94,91.86,5.74,5.74,0,0,0,.62,1,60.06,60.06,0,1,0,50.32-92.84ZM175,255.65A46.85,46.85,0,0,1,256.72,211l-36.26,36.25L206.63,233.4a6.6,6.6,0,0,0-9.35,0Zm90.25-17.73A46.84,46.84,0,0,1,182,267.36l20-20,13.84,13.84a6.6,6.6,0,0,0,9.34,0L263,223.39A46.3,46.3,0,0,1,265.28,237.92Z"/><path class="cls-5" d="M320,233.37A195.78,195.78,0,0,0,221.7,69.79a6.67,6.67,0,0,0-6.56,0,195.8,195.8,0,0,0-98.29,163.58,63.45,63.45,0,0,0-38.4,58.26v46.64a6.61,6.61,0,0,0,6.61,6.61h97a83,83,0,0,0,24.36,52.89l7.36,7.26a6.6,6.6,0,0,0,9.27,0l7.36-7.26a82.88,82.88,0,0,0,24.35-52.89h20.43V379a6.6,6.6,0,1,0,13.2,0V344.88h63.37a6.61,6.61,0,0,0,6.61-6.61V291.63A63.42,63.42,0,0,0,320,233.37ZM218.42,83.18A182.48,182.48,0,0,1,270.94,131H165.88A182.3,182.3,0,0,1,218.42,83.18ZM91.66,331.67v-40a50.27,50.27,0,0,1,25.09-43.47v76.91a19.52,19.52,0,0,0,1.14,6.6Zm129.49,56.69-2.73,2.7-2.74-2.7a69.68,69.68,0,0,1-20.37-43.48h46.2A69.56,69.56,0,0,1,221.15,388.36Zm85.72-63.29a6.6,6.6,0,0,1-6.59,6.6H136.56a6.61,6.61,0,0,1-6.61-6.6V239.63a182.15,182.15,0,0,1,13.49-68.71h29.89a6.61,6.61,0,0,0,0-13.21H149.44q3.47-6.92,7.54-13.53H279.86a182.65,182.65,0,0,1,27,95.45Zm38.29,6.6H319a20,20,0,0,0,1.13-6.6V248.16a50.24,50.24,0,0,1,25.08,43.47Z"/><path class="cls-5" d="M197.28,170.92a6.57,6.57,0,1,0-4.67-1.93A6.68,6.68,0,0,0,197.28,170.92Z"/><path class="cls-5" d="M155,362.53a6.61,6.61,0,0,0-6.61,6.6v20.34a6.61,6.61,0,0,0,13.22,0V369.13A6.61,6.61,0,0,0,155,362.53Z"/><path class="cls-5" d="M281.79,393.72a6.61,6.61,0,1,0,4.67,1.94A6.67,6.67,0,0,0,281.79,393.72Z"/></g></g></svg>