<svg xmlns="http://www.w3.org/2000/svg" viewBox="0 0 436.82 475.85"><defs><style>.cls-1{opacity:0.1;}.cls-2{fill:#e56539;}.cls-3{opacity:0.11;}.cls-4{fill:#f16226;}</style></defs><title>ic-003</title><g id="Capa_2" data-name="Capa 2"><g id="Icon_004" data-name="Icon 004"><g class="cls-1"><path class="cls-2" d="M148.59,51.4a20.39,20.39,0,1,1-28.66,3.17A20.39,20.39,0,0,1,148.59,51.4Z"/></g><g class="cls-1"><path class="cls-2" d="M417.06,190a12,12,0,1,1-16.8,1.86A12,12,0,0,1,417.06,190Z"/></g><g class="cls-1"><circle class="cls-2" cx="169.23" cy="444.94" r="30.91" transform="translate(-265.05 249.99) rotate(-45)"/></g><g class="cls-3"><path class="cls-2" d="M45.74,389.06c-45-34.27-58-92.66-33.65-143.39C33,202,78.93,180.26,117.45,155.08c18.92-12.37,37-27.47,46.92-47.78C177,81.39,176.93,52.14,196.9,29.83,216.47,8,247.25-5,276.49,1.85c46.18,10.88,57.14,59.89,67.15,99.37,10.79,42.51,29.59,82.3,54.69,118.19,22.23,31.77,41.82,66.15,38,106.65-3.15,33.53-26.22,63.16-56.58,76.93C340.36,420.87,311,399.86,273.6,388,198.86,364.43,115.82,442.39,45.74,389.06Z"/></g><path class="cls-4" d="M369.58,389.11H277.33V371.62a22.82,22.82,0,0,1,22.78-22.79h17.11V369A6.41,6.41,0,1,0,330,369V348.83h16.79a22.8,22.8,0,0,1,22.76,22.79Zm-63.05-75.87a16.94,16.94,0,0,1,33.87,0v5.84a16.94,16.94,0,1,1-33.87,0Zm-42,75.87H172.29V371.62a22.8,22.8,0,0,1,22.76-22.79h17V369a6.41,6.41,0,1,0,12.82,0V348.83h16.85a22.8,22.8,0,0,1,22.77,22.79Zm-63-75.87a16.94,16.94,0,0,1,33.87,0v5.84a16.94,16.94,0,1,1-33.87,0Zm-42,75.87H67.22V371.62A22.81,22.81,0,0,1,90,348.83h16.94V369a6.42,6.42,0,1,0,12.83,0V348.83h16.93a22.81,22.81,0,0,1,22.78,22.79ZM96.4,313.24a16.95,16.95,0,0,1,33.89,0v5.84a16.95,16.95,0,0,1-33.89,0Zm251.49,22.81a29.6,29.6,0,0,0,5.33-17v-5.84a29.76,29.76,0,0,0-59.51,0v5.84a29.54,29.54,0,0,0,5.34,17,35.55,35.55,0,0,0-28.12,15.23,35.53,35.53,0,0,0-28.11-15.23,29.6,29.6,0,0,0,5.33-17v-5.84a29.75,29.75,0,0,0-59.5,0v5.84a29.6,29.6,0,0,0,5.33,17,35.59,35.59,0,0,0-28.11,15.23,35.53,35.53,0,0,0-28.11-15.23,29.46,29.46,0,0,0,5.33-17v-5.84a29.75,29.75,0,0,0-59.5,0v5.84a29.6,29.6,0,0,0,5.33,17,35.61,35.61,0,0,0-34.51,35.57v23.9a6.39,6.39,0,0,0,6.4,6.4H376a6.4,6.4,0,0,0,6.41-6.4v-23.9a35.63,35.63,0,0,0-34.52-35.57"/><path class="cls-4" d="M252.52,246.9H224.81V229.23a6.41,6.41,0,1,0-12.81,0V246.9H113.35a6.42,6.42,0,0,0-6.42,6.4v14.77a6.42,6.42,0,1,0,12.83,0v-8.36H212v8.36a6.41,6.41,0,1,0,12.81,0v-8.36h27.71a6.41,6.41,0,0,0,0-12.81"/><path class="cls-4" d="M280.59,248.77a6.42,6.42,0,0,0-9.06,0,6.54,6.54,0,0,0-1.88,4.54,6.41,6.41,0,0,0,10.94,4.52,6.4,6.4,0,0,0,0-9.06"/><path class="cls-4" d="M323.63,246.9H298.8a6.41,6.41,0,0,0,0,12.81h18.43v8.36a6.4,6.4,0,1,0,12.8,0V253.3a6.4,6.4,0,0,0-6.4-6.4"/><path class="cls-4" d="M290.79,190.52a6.41,6.41,0,0,1-6.4,6.41h-132a6.41,6.41,0,0,1-6.4-6.41V93.14a6.41,6.41,0,0,1,6.4-6.4h132a6.41,6.41,0,0,1,6.4,6.4Zm-6.4-116.59h-132A19.24,19.24,0,0,0,133.2,93.14v97.38a19.25,19.25,0,0,0,19.22,19.23h132a19.25,19.25,0,0,0,19.21-19.23V93.14a19.23,19.23,0,0,0-19.21-19.21"/><path class="cls-4" d="M278,104.7H263.63a6.4,6.4,0,0,0-1,12.72l-35.33,35.32-22-22a6.36,6.36,0,0,0-9.05,0l-19.54,19.53a6.41,6.41,0,1,0,9.08,9.05l15-15,22,22a6.39,6.39,0,0,0,9,0l39.86-39.85a6.39,6.39,0,0,0,12.71-1V111.1a6.4,6.4,0,0,0-6.4-6.4"/><path class="cls-4" d="M171,165.1A6.4,6.4,0,0,0,160,169.62a6.4,6.4,0,1,0,12.79,0A6.39,6.39,0,0,0,171,165.1"/><path class="cls-4" d="M171.89,101.43a6.39,6.39,0,0,0-9,0,6.41,6.41,0,0,0,4.53,10.94,6.41,6.41,0,0,0,4.52-10.94"/><path class="cls-4" d="M195.39,101.43a6.4,6.4,0,0,0-9.06,0,6.4,6.4,0,0,0,0,9.06,6.4,6.4,0,0,0,9.06,0,6.4,6.4,0,0,0,0-9.06"/><path class="cls-4" d="M218.88,101.43a6.4,6.4,0,1,0,1.88,4.52,6.44,6.44,0,0,0-1.88-4.52"/></g></g></svg>