<svg xmlns="http://www.w3.org/2000/svg" viewBox="0 0 436.82 475.85"><defs><style>.cls-1{opacity:0.1;}.cls-2{fill:#e56539;}.cls-3{opacity:0.11;}.cls-4{fill:#f16226;}</style></defs><title>ic-002</title><g id="Capa_2" data-name="Capa 2"><g id="Icon_003" data-name="Icon 003"><g class="cls-1"><path class="cls-2" d="M148.59,51.4a20.39,20.39,0,1,1-28.66,3.17A20.39,20.39,0,0,1,148.59,51.4Z"/></g><g class="cls-1"><path class="cls-2" d="M417.06,190a12,12,0,1,1-16.8,1.86A12,12,0,0,1,417.06,190Z"/></g><g class="cls-1"><circle class="cls-2" cx="169.23" cy="444.94" r="30.91" transform="translate(-265.05 249.99) rotate(-45)"/></g><g class="cls-3"><path class="cls-2" d="M45.74,389.06c-45-34.27-58-92.66-33.65-143.39C33,202,78.93,180.26,117.45,155.08c18.92-12.37,37-27.47,46.92-47.78C177,81.39,176.93,52.14,196.9,29.83,216.47,8,247.25-5,276.49,1.85c46.18,10.88,57.14,59.89,67.15,99.37,10.79,42.51,29.59,82.3,54.69,118.19,22.23,31.77,41.82,66.15,38,106.65-3.15,33.53-26.22,63.16-56.58,76.93C340.36,420.87,311,399.86,273.6,388,198.86,364.43,115.82,442.39,45.74,389.06Z"/></g><path class="cls-4" d="M281.62,268.13a75.52,75.52,0,1,1,75.52-75.52,75.61,75.61,0,0,1-75.52,75.52m-79.54-3.35a32.48,32.48,0,0,1-65,0V254.61h12.67a48.67,48.67,0,0,0,33.78-13.56l18.51,10.86ZM144.26,326v-16.2h50.85a6.3,6.3,0,0,0-.17,1.44V326L173,311.93a6.29,6.29,0,0,0-6.82,0Zm57,17.83a6.21,6.21,0,0,0,3-.78,6.28,6.28,0,0,0,3.27-5.52V311.28a5.79,5.79,0,0,0-.17-1.44h.26a43.83,43.83,0,0,1,43.79,43.79v32.82H87.78V353.63a43.84,43.84,0,0,1,43.8-43.79h.1v27.73a6.29,6.29,0,0,0,9.69,5.29l21.93-14.1v13.65a6.3,6.3,0,0,0,12.6,0V328.76l21.93,14.1a6.25,6.25,0,0,0,3.4,1M137.12,240.7V239a32.47,32.47,0,0,1,64.9-1.7l-16.4-9.63a6.3,6.3,0,0,0-8,1.38,36.24,36.24,0,0,1-27.82,13H137.12Zm144.5-136.19a88.2,88.2,0,0,0-88.1,88.1c0,2.85.14,5.69.41,8.47A45,45,0,0,0,124.54,239v25.8a44.9,44.9,0,0,0,13.87,32.47h-6.83A56.44,56.44,0,0,0,75.2,353.63v39.11A6.29,6.29,0,0,0,81.49,399H257.71a6.29,6.29,0,0,0,6.29-6.29V353.63a56.44,56.44,0,0,0-56.39-56.38h-6.82a44.9,44.9,0,0,0,13.87-32.47v-15a88.09,88.09,0,1,0,67-145.3"/><path class="cls-4" d="M174.05,360.92a6.28,6.28,0,1,0,1.85,4.44,6.34,6.34,0,0,0-1.85-4.44"/><path class="cls-4" d="M232.21,352.46H203.9a6.29,6.29,0,1,0,0,12.58h28.31a6.29,6.29,0,1,0,0-12.58"/><path class="cls-4" d="M281.62,76.82a115.86,115.86,0,0,0-114.24,96.75,6.3,6.3,0,1,0,12.43,2.05,103.21,103.21,0,1,1,101.81,120.2,6.29,6.29,0,0,0,0,12.58,115.79,115.79,0,1,0,0-231.58"/><path class="cls-4" d="M262.19,294h-.09a6.29,6.29,0,0,0-2.38,12.36,6.51,6.51,0,0,0,1.24.12A6.3,6.3,0,0,0,262.19,294"/><path class="cls-4" d="M315.54,158.8a6.29,6.29,0,0,0-8.9,0l-24.91,24.92L268.6,170.6a6.29,6.29,0,1,0-8.89,8.9l17.56,17.56a6.28,6.28,0,0,0,8.9,0l29.37-29.36a6.31,6.31,0,0,0,0-8.9"/><path class="cls-4" d="M281.62,124.7a6.28,6.28,0,0,0-6.29,6.29v4.46a6.29,6.29,0,1,0,12.58,0V131a6.29,6.29,0,0,0-6.29-6.29"/><path class="cls-4" d="M281.62,243.49a6.28,6.28,0,0,0-6.29,6.29v4.46a6.29,6.29,0,1,0,12.58,0v-4.46a6.29,6.29,0,0,0-6.29-6.29"/><path class="cls-4" d="M343.24,186.32h-4.46a6.29,6.29,0,1,0,0,12.58h4.46a6.29,6.29,0,0,0,0-12.58"/><path class="cls-4" d="M224.45,186.32H220a6.29,6.29,0,1,0,0,12.58h4.45a6.29,6.29,0,1,0,0-12.58"/></g></g></svg>