<svg xmlns="http://www.w3.org/2000/svg" viewBox="0 0 436.82 475.85"><defs><style>.cls-1{fill:#f16226;}.cls-2{opacity:0.1;}.cls-3{fill:#e56539;}.cls-4{opacity:0.11;}</style></defs><title>ic-001</title><g id="Capa_2" data-name="Capa 2"><g id="Icon_002" data-name="Icon 002"><path class="cls-1" d="M218.41,284.79A46.79,46.79,0,0,1,182,267.36l20-20,13.84,13.84a6.6,6.6,0,0,0,9.34,0L263,223.39a46.3,46.3,0,0,1,2.32,14.53,46.93,46.93,0,0,1-46.87,46.87M175,255.65A46.85,46.85,0,0,1,256.72,211l-36.26,36.25L206.63,233.4a6.6,6.6,0,0,0-9.35,0Zm43.38-77.8a60,60,0,0,0-50.94,91.86,5.74,5.74,0,0,0,.62,1,60.06,60.06,0,1,0,50.32-92.84"/><path class="cls-1" d="M345.16,331.67H319a20,20,0,0,0,1.13-6.6V248.16a50.24,50.24,0,0,1,25.08,43.47Zm-38.29-6.6a6.6,6.6,0,0,1-6.59,6.6H136.56a6.61,6.61,0,0,1-6.61-6.6V239.63a182.15,182.15,0,0,1,13.49-68.71h29.89a6.61,6.61,0,0,0,0-13.21H149.44q3.47-6.92,7.54-13.53H279.86a182.65,182.65,0,0,1,27,95.45Zm-85.72,63.29-2.73,2.7-2.74-2.7a69.68,69.68,0,0,1-20.37-43.48h46.2a69.56,69.56,0,0,1-20.36,43.48M91.66,331.67v-40a50.27,50.27,0,0,1,25.09-43.47v76.91a19.52,19.52,0,0,0,1.14,6.6ZM218.42,83.18A182.48,182.48,0,0,1,270.94,131H165.88a182.3,182.3,0,0,1,52.54-47.8M320,233.37A195.78,195.78,0,0,0,221.7,69.79a6.67,6.67,0,0,0-6.56,0,195.8,195.8,0,0,0-98.29,163.58,63.45,63.45,0,0,0-38.4,58.26v46.64a6.61,6.61,0,0,0,6.61,6.61h97a83,83,0,0,0,24.36,52.89l7.36,7.26a6.6,6.6,0,0,0,9.27,0l7.36-7.26a82.88,82.88,0,0,0,24.35-52.89h20.43V379a6.6,6.6,0,1,0,13.2,0V344.88h63.37a6.61,6.61,0,0,0,6.61-6.61V291.63A63.42,63.42,0,0,0,320,233.37"/><path class="cls-1" d="M202,159.65a6.59,6.59,0,0,0-9.34,0A6.6,6.6,0,0,0,202,169a6.59,6.59,0,0,0,0-9.34"/><path class="cls-1" d="M155,362.53a6.61,6.61,0,0,0-6.61,6.6v20.34a6.61,6.61,0,0,0,13.22,0V369.13a6.61,6.61,0,0,0-6.61-6.6"/><path class="cls-1" d="M286.46,395.66a6.6,6.6,0,0,0-9.35,0,6.61,6.61,0,0,0,9.35,9.34,6.61,6.61,0,0,0,0-9.34"/><g class="cls-2"><path class="cls-3" d="M148.59,51.4a20.39,20.39,0,1,1-28.66,3.17A20.39,20.39,0,0,1,148.59,51.4Z"/></g><g class="cls-2"><path class="cls-3" d="M417.06,190a12,12,0,1,1-16.8,1.86A12,12,0,0,1,417.06,190Z"/></g><g class="cls-2"><circle class="cls-3" cx="169.23" cy="444.94" r="30.91" transform="translate(-265.05 249.99) rotate(-45)"/></g><g class="cls-4"><path class="cls-3" d="M45.74,389.06c-45-34.27-58-92.66-33.65-143.39C33,202,78.93,180.26,117.45,155.08c18.92-12.37,37-27.47,46.92-47.78C177,81.39,176.93,52.14,196.9,29.83,216.47,8,247.25-5,276.49,1.85c46.18,10.88,57.14,59.89,67.15,99.37,10.79,42.51,29.59,82.3,54.69,118.19,22.23,31.77,41.82,66.15,38,106.65-3.15,33.53-26.22,63.16-56.58,76.93C340.36,420.87,311,399.86,273.6,388,198.86,364.43,115.82,442.39,45.74,389.06Z"/></g></g></g></svg>