<svg xmlns="http://www.w3.org/2000/svg" viewBox="0 0 143.06 23.48"><defs><style>.cls-1{fill:#1e2830;}.cls-2{fill:#0eb1bb;}.cls-3{fill:#217181;}.cls-4{fill:#009faf;}</style></defs><title>logo-negro</title><g id="Capa_2" data-name="Capa 2"><g id="Layer_1" data-name="Layer 1"><path class="cls-1" d="M38.66,12.26v9.92H33.9V20.44a5.59,5.59,0,0,1-4.66,2c-3.24,0-5.21-2-5.21-4.76s2.06-4.57,5.83-4.6h4v-.23c0-1.49-1-2.39-3-2.39a10.66,10.66,0,0,0-4.54,1.27L25,8.48A16,16,0,0,1,32,6.76C36.21,6.76,38.63,8.82,38.66,12.26ZM33.87,17V15.67H30.8c-1.47,0-2.2.51-2.2,1.64s.79,1.8,2.14,1.8A3.07,3.07,0,0,0,33.87,17Z"/><path class="cls-1" d="M55.52,10.23,52,12.35A3.62,3.62,0,0,0,49,10.77c-1.89,0-3.18,1.55-3.18,3.83s1.29,3.86,3.18,3.86a3.32,3.32,0,0,0,3.1-1.72l3.56,2.09c-1.25,2.23-3.7,3.52-6.91,3.52-4.68,0-7.84-3.1-7.84-7.72s3.19-7.81,7.89-7.81A7.58,7.58,0,0,1,55.52,10.23Z"/><path class="cls-1" d="M69.67,8.48,68,11.64a10.85,10.85,0,0,0-4.79-1.52c-.88,0-1.5.34-1.5,1,0,2.09,8,1.07,8,6.37,0,3.13-2.73,4.85-6.4,4.85a11.24,11.24,0,0,1-6.82-2.14L58,17.14A9.76,9.76,0,0,0,63.42,19c1,0,1.66-.34,1.66-1.05,0-2.22-7.87-1.07-7.84-6.4,0-3.13,2.65-4.82,6.18-4.82A12.41,12.41,0,0,1,69.67,8.48Z"/><path class="cls-1" d="M86.76,15.9H76.07a3.52,3.52,0,0,0,3.58,2.82,5.14,5.14,0,0,0,3.64-1.55l2.57,2.5a8.71,8.71,0,0,1-6.63,2.68c-5,0-8.06-3.1-8.06-7.72s3.21-7.81,7.92-7.81C84.45,6.82,87.1,10.34,86.76,15.9Zm-4.68-2.62a2.84,2.84,0,0,0-2.93-3.08c-1.69,0-2.85,1.24-3.16,3.08Z"/><path class="cls-1" d="M104.92,12.6v9.58h-4.85V14a2.59,2.59,0,0,0-2.68-2.87,3.09,3.09,0,0,0-3.1,3.07v8H89.41V7h4.88V9.47a5.64,5.64,0,0,1,5.07-2.71C102.72,6.76,104.92,9.05,104.92,12.6Z"/><path class="cls-1" d="M123.69,22.18h-4.87v-2a5.52,5.52,0,0,1-4.57,2.2c-4.29,0-7.11-3.16-7.11-7.86s2.8-7.73,7-7.73A5.65,5.65,0,0,1,118.82,9V1.27h4.87Zm-4.87-7.55c0-2.34-1.36-4-3.39-4s-3.38,1.61-3.41,4,1.38,4,3.41,4S118.82,17,118.82,14.63Z"/><path class="cls-1" d="M143.06,14.57c0,4.68-3.33,7.78-8.29,7.78s-8.31-3.1-8.31-7.78,3.32-7.75,8.31-7.75S143.06,9.89,143.06,14.57Zm-11.7.06c0,2.37,1.38,3.95,3.41,3.95s3.39-1.58,3.39-3.95-1.39-4-3.39-4S131.36,12.29,131.36,14.63Z"/><path class="cls-2" d="M10.07,14.76,18.85,4.63s1.91,2.84,1.78,8.72a1.55,1.55,0,0,1-.37,1l-5.41,6.35Z"/><path class="cls-3" d="M13.27,22.46l1.58-1.8L1.72,4.37s-1.94,3-1.7,8.41A3,3,0,0,0,.67,14.5L7,22.37a3,3,0,0,0,2.33,1.11H11A3,3,0,0,0,13.27,22.46Z"/><path class="cls-4" d="M10.32,6c3,0,3.82,3,4,3.89l4.55-5.26C17.39,2.08,14.79,0,10.18,0s-7,2-8.46,4.37L6.21,9.94v0C6.32,9.32,7.07,6,10.32,6Z"/></g></g></svg>