<?xml version="1.0" encoding="utf-8"?>
<!-- Generator: Adobe Illustrator 19.0.0, SVG Export Plug-In . SVG Version: 6.00 Build 0)  -->
<svg version="1.1" id="Camada_1" xmlns="http://www.w3.org/2000/svg" xmlns:xlink="http://www.w3.org/1999/xlink" x="0px" y="0px"
	 viewBox="0 0 680 130" style="enable-background:new 0 0 680 130;" xml:space="preserve">
<style type="text/css">
	.st0{fill:#FFFFFF;}
	.st1{fill:#E87D1F;}
	.st2{fill:#E68E23;}
	.st3{fill:#E35E20;}
</style>
<g id="XMLID_6_">
	<path id="XMLID_15_" class="st0" d="M145.2,93.8c-3.8,5.2-9.9,7.8-17.6,7.8c-9.9,0-16.3-6.4-16.3-14.7c0-8.4,6.7-13.7,18-13.8H145
		v-2.8c0-7-4.4-11.2-12.9-11.2c-5.3,0-10.2,2-15.2,5.5l-3-5.2c6.2-4.1,11.4-6.5,19.6-6.5c11.9,0,18.4,6.3,18.5,16.6l0.1,31.7h-6.9
		V93.8z M145.1,84.6v-5.7h-15c-8,0-12.2,2.5-12.2,7.8c0,5.3,4.3,8.8,11,8.8C137,95.3,143.2,91.2,145.1,84.6z"/>
	<path id="XMLID_18_" class="st0" d="M205.4,60.1l-3.9,5c-3.6-3.5-8.5-5.6-14.3-5.6c-9.9,0-17.1,7.2-17.1,17.7
		c0,10.5,7.1,17.8,17.1,17.8c6.3,0,11.5-2.2,14.9-6.2l4.1,4.4c-4.3,5.2-10.9,8.3-19.2,8.3c-14,0-23.8-9.9-23.8-24.3
		c0-14.3,9.9-24.3,23.8-24.3C194.7,52.9,201.1,55.5,205.4,60.1z"/>
	<path id="XMLID_20_" class="st0" d="M247.2,57.2l-2.7,5.7c-3.7-2.4-8.6-3.9-13-3.9c-5.4,0-9.5,1.9-9.5,6.4
		c0,10.7,26.8,5.2,26.8,22.4c0,9.5-8.4,13.7-17.6,13.7c-6.8,0-13.9-2.4-18.4-6.7l2.7-5.4c4.1,3.8,10.3,6.1,16,6.1s10.2-2.1,10.3-6.8
		c0.3-11.6-26.6-5.7-26.5-22.7c0-9.2,7.9-13,16.7-13C237.6,52.9,243.2,54.5,247.2,57.2z"/>
	<path id="XMLID_22_" class="st0" d="M301.8,79.9h-39.2c1.3,9.4,8.1,15.3,17.4,15.3c5.9,0,11.1-2.1,14.9-6l3.9,4.2
		c-4.6,5.1-11.3,8-19.3,8c-14.1,0-23.9-9.9-23.9-24.3c0-14.3,9.8-24.3,23.8-24.3C294.9,52.9,302.6,63.6,301.8,79.9z M295.4,74.1
		c-0.5-9.2-6.7-15-16-15c-9.1,0-15.7,5.9-16.8,15H295.4z"/>
	<path id="XMLID_25_" class="st0" d="M358,71.6v29.6h-7.1V73.5c0-8.5-5.1-13.5-13.6-13.5c-9.5,0.1-15.3,6.3-16.1,15.4v25.8h-7.1
		V53.1h7.1v10.6c3.4-7.3,9.8-10.8,18.6-10.8C351.3,52.9,358,60,358,71.6z"/>
	<path id="XMLID_27_" class="st0" d="M418,101.2h-7.1V90.9c-3.6,6.7-10.1,10.7-18.7,10.7c-13.7,0-23.2-10.1-23.2-24.4
		c0-14.4,9.5-24.3,23.1-24.3c8.6,0,15.2,3.9,18.8,10.8v-30h7.1V101.2z M410.9,77.3c0-10.5-7.2-18.1-17.3-18.1
		c-10.2,0-17.4,7.6-17.4,18.1c0,10.4,7.2,17.9,17.4,17.9C403.7,95.2,410.9,87.7,410.9,77.3z"/>
	<path id="XMLID_30_" class="st0" d="M479.6,77.1c0,14.4-10.1,24.3-24.3,24.3c-14.2,0-24.3-9.9-24.3-24.3
		c0-14.3,10.1-24.2,24.3-24.2C469.5,53,479.6,62.8,479.6,77.1z M438.1,77.2c0,10.6,7.2,17.9,17.2,17.9c10,0,17.2-7.3,17.2-17.9
		c0-10.5-7.2-17.8-17.2-17.8C445.3,59.4,438.1,66.7,438.1,77.2z"/>
</g>
<g id="XMLID_5_">
	<path id="XMLID_7_" class="st0" d="M492.7,49c0-9.8,7.6-16.5,18.8-16.4c3.4,0,7.1,0.6,9.7,1.7l-0.5,12.6c-1.7-1.3-3.9-2-5.8-2.1
		c-3.8-0.1-6.5,2.6-6.5,6.5v2.5h11.2l-0.1,10.3h-11.1v37.1h-15.6V64.1H486l0.1-10.3h6.6V49z M541.8,101.2h-15.8V33.5h15.8V101.2z"/>
	<path id="XMLID_10_" class="st0" d="M601.2,80.9h-34.6c1.5,5.8,5.7,9.1,11.6,9.1c4.3,0,8.5-1.7,11.8-5l8.3,8.1
		c-5,5.5-12.4,8.7-21.4,8.7c-16,0-26.1-10-26.1-25c0-15.2,10.4-25.3,25.6-25.3C593.7,51.5,602.3,62.9,601.2,80.9z M586.1,72.4
		c0-6-3.8-9.9-9.5-9.9c-5.5,0-9.2,4-10.2,9.9H586.1z"/>
	<path id="XMLID_13_" class="st0" d="M637.3,52h17.2L639,75.9l16.7,25.3h-18.1l-8.9-15.4l-10,15.4h-17.3L618,76l-15.7-24h18.1
		l8.2,14.1L637.3,52z"/>
</g>
<g id="XMLID_4_">
	<path id="XMLID_34_" class="st1" d="M32.4,75c-0.6-0.7-0.9-1.6-1-2.5c-0.6-7.6-1.5-43.1,32.9-43.1c33.7,0,34.3,34.3,33.9,43
		c0,0.9-1,1.4-1.8,1L78.3,62.5c-0.3-0.2-0.5-0.4-0.5-0.8c-0.4-2.4-2.7-12.9-12.9-12.9c-10.5,0-12.9,10.7-13.3,12.6
		c0,0.2,1.9,2.2,1.8,2.4L38.1,81.6L32.4,75z"/>
</g>
<g id="XMLID_3_">
	<path id="XMLID_33_" class="st2" d="M64,77.2l28.4-32.8c0,0,6.2,9.2,5.7,28.2c0,1.1-0.5,2.2-1.2,3.1L79.4,96.2L64,77.2z"/>
</g>
<g id="XMLID_2_">
	<path id="XMLID_1_" class="st3" d="M74.4,102.1l5.1-5.8L37,43.6c0,0-7.1,10.7-5.3,30.4l22.4,27.8c1.8,2.3,4.6,3.6,7.5,3.6h5.5
		C69.9,105.4,72.5,104.2,74.4,102.1"/>
</g>
</svg>
