<svg xmlns="http://www.w3.org/2000/svg" viewBox="0 0 845.65 493.42"><defs><style>.cls-1{fill:#ff8c95;}.cls-2{fill:#ffd564;}.cls-3{fill:#ff8b94;}.cls-4{fill:#0cd9e9;}.cls-5{fill:#ffd664;}</style></defs><title>video-back</title><g id="Capa_2" data-name="Capa 2"><g id="Layer_1" data-name="Layer 1"><path class="cls-1" d="M836.37,363.89l-9.28-9.27,9.28-9.28,9.28,9.28Zm-4.87-9.27,4.87,4.86,4.87-4.86-4.87-4.87Z"/><path class="cls-2" d="M30.73,132.19c4.9-3.25,9.34-2.07,12.91-1.11,3.18.85,5.69,1.52,8.6-.42s3.27-4.5,3.71-7.76c.51-3.66,1.13-8.21,6-11.47s9.35-2.08,12.91-1.12c3.18.85,5.69,1.52,8.6-.41s3.26-4.51,3.71-7.77c.5-3.66,1.13-8.21,6-11.47s9.34-2.07,12.91-1.12c3.18.85,5.69,1.52,8.6-.41a2.66,2.66,0,0,1,2.94,4.43c-4.91,3.26-9.35,2.07-12.91,1.12-3.18-.85-5.69-1.53-8.6.41s-3.26,4.5-3.71,7.76c-.51,3.66-1.13,8.21-6,11.47s-9.34,2.08-12.91,1.12c-3.18-.85-5.69-1.52-8.6.41s-3.26,4.51-3.71,7.77c-.5,3.66-1.13,8.21-6,11.47s-9.34,2.07-12.91,1.12c-3.18-.85-5.69-1.52-8.6.41a2.66,2.66,0,0,1-2.94-4.43Z"/><polygon class="cls-3" points="5.42 42.78 17.96 59.85 12.54 63.89 0 46.83 5.42 42.78"/><circle class="cls-4" cx="720.7" cy="489.67" r="3.75"/><circle class="cls-4" cx="99.43" cy="3.5" r="3.5"/><path class="cls-5" d="M721.2,403a37.77,37.77,0,1,1,37.76,38A37.93,37.93,0,0,1,721.2,403Zm58.23,0A20.47,20.47,0,1,0,759,423.63,20.57,20.57,0,0,0,779.43,403Z"/></g></g></svg>